<svg width="10" height="10" viewBox="0 0 10 10" fill="none" xmlns="http://www.w3.org/2000/svg">
<path d="M0.203633 8.86199L7.7323 1.33332L2.67497 1.33332C2.49816 1.33332 2.32859 1.26308 2.20356 1.13806C2.07854 1.01303 2.0083 0.843464 2.0083 0.666653C2.0083 0.489842 2.07854 0.320272 2.20356 0.195248C2.32859 0.070224 2.49816 -1.34115e-05 2.67497 -1.3396e-05L9.34163 -1.28132e-05C9.42905 0.000404685 9.51555 0.01784 9.5963 0.0513203C9.75958 0.118981 9.88931 0.248709 9.95697 0.411987C9.99045 0.492739 10.0079 0.579238 10.0083 0.666654L10.0083 7.33332C10.0083 7.51013 9.93806 7.6797 9.81304 7.80472C9.68801 7.92975 9.51845 7.99999 9.34163 7.99999C9.16482 7.99999 8.99525 7.92975 8.87023 7.80472C8.74521 7.6797 8.67497 7.51013 8.67497 7.33332L8.67497 2.27599L1.1463 9.80465C1.0848 9.86833 1.01124 9.91911 0.929903 9.95405C0.848567 9.98899 0.761086 10.0074 0.672567 10.0082C0.584047 10.0089 0.496262 9.99205 0.414331 9.95853C0.3324 9.92501 0.257965 9.87551 0.19537 9.81292C0.132775 9.75032 0.083272 9.67589 0.0497514 9.59396C0.0162308 9.51202 -0.000636839 9.42424 0.00013238 9.33572C0.000901599 9.2472 0.0192931 9.15972 0.0542324 9.07838C0.0891718 8.99705 0.139959 8.92348 0.203633 8.86199Z" fill="#0E763B"/>
</svg>
