<svg width="17" height="19" viewBox="0 0 17 19" fill="none" xmlns="http://www.w3.org/2000/svg">
<path d="M12.1781 14.3811C12.4387 14.8307 12.5169 15.3589 12.3981 15.8702C12.28 16.3807 11.9787 16.8132 11.5506 17.0868L9.99813 18.0791C9.7 18.2694 9.36562 18.3652 9.02875 18.3652C8.72625 18.3652 8.42125 18.2884 8.13812 18.1336C4.87812 16.3584 3.01687 13.7222 2.1975 12.3093C0.381875 9.17772 0.000625 6.09203 0 4.05569C0 3.36925 0.33625 2.74319 0.9 2.38225L2.45312 1.39C2.88063 1.11634 3.38375 1.03431 3.87125 1.159C4.3575 1.28303 4.76938 1.59869 5.02938 2.04822L6.00438 3.72953C6.54188 4.65747 6.26062 5.87087 5.3775 6.43525L4.57312 6.94909C4.33187 7.10331 4.21438 7.41306 4.295 7.68475C4.56063 8.58709 4.93313 9.454 5.40125 10.2618C5.86812 11.0671 6.43 11.8112 7.07 12.4741C7.26813 12.6788 7.5775 12.7123 7.82312 12.5554L8.62687 12.0416C9.50875 11.4759 10.6656 11.7719 11.2037 12.6992L12.1788 14.3811H12.1781ZM8.48063 6.493C9.84313 6.7135 10.78 8.0575 10.57 9.48747C10.5175 9.84578 10.7512 10.1811 11.0925 10.2362C11.125 10.2415 11.1569 10.2441 11.1888 10.2441C11.4919 10.2441 11.7581 10.0118 11.8056 9.68762C12.1206 7.54169 10.715 5.527 8.67188 5.19559C8.33125 5.14178 8.01125 5.38591 7.95875 5.74356C7.90625 6.10187 8.14 6.43722 8.48063 6.49234V6.493ZM9.0525 2.60144C8.71437 2.54631 8.39188 2.79175 8.33938 3.15006C8.28688 3.50772 8.52062 3.84306 8.86187 3.89884C10.1819 4.11278 11.3431 4.85369 12.1325 5.98506C12.9219 7.11644 13.2444 8.50244 13.0406 9.88844C12.9881 10.2461 13.2219 10.5814 13.5631 10.6372C13.595 10.6425 13.6275 10.6451 13.6594 10.6451C13.9625 10.6451 14.2287 10.4128 14.2762 10.0886C14.5312 8.35609 14.1281 6.62359 13.1412 5.20937C12.1544 3.79516 10.7025 2.86919 9.0525 2.60144ZM9.43375 0.00728081C9.09375 -0.0458754 8.77312 0.197593 8.72062 0.555906C8.66812 0.913562 8.90187 1.24891 9.24312 1.30469C13.33 1.96684 16.1419 5.99687 15.5112 10.2887C15.4587 10.6464 15.6925 10.9818 16.0337 11.0375C16.0656 11.0428 16.0981 11.0454 16.13 11.0454C16.4331 11.0454 16.6994 10.8131 16.7469 10.4889C17.4831 5.48237 14.2025 0.781 9.43375 0.00793717V0.00728081Z" fill="#F5811B"/>
</svg>
