<svg width="10" height="10" viewBox="0 0 10 10" fill="none" xmlns="http://www.w3.org/2000/svg">
<path d="M0.203144 8.86162L7.73181 1.33295L2.67448 1.33295C2.49767 1.33295 2.3281 1.26272 2.20307 1.13769C2.07805 1.01267 2.00781 0.843098 2.00781 0.666287C2.00781 0.489476 2.07805 0.319906 2.20307 0.194882C2.3281 0.0698579 2.49767 -0.000379265 2.67448 -0.00037925L9.34115 -0.000378667C9.42856 3.80963e-05 9.51506 0.0174741 9.59581 0.0509538C9.75909 0.118615 9.88882 0.248343 9.95648 0.411621C9.98996 0.492373 10.0074 0.578872 10.0078 0.666287L10.0078 7.33295C10.0078 7.50976 9.93757 7.67933 9.81255 7.80436C9.68753 7.92938 9.51796 7.99962 9.34115 7.99962C9.16433 7.99962 8.99477 7.92938 8.86974 7.80436C8.74472 7.67933 8.67448 7.50976 8.67448 7.33295L8.67448 2.27562L1.14581 9.80429C1.08431 9.86796 1.01075 9.91875 0.929415 9.95369C0.848079 9.98863 0.760598 10.007 0.672078 10.0078C0.583559 10.0086 0.495773 9.99169 0.413842 9.95817C0.331912 9.92465 0.257477 9.87514 0.194881 9.81255C0.132286 9.74995 0.0827837 9.67552 0.049263 9.59359C0.0157423 9.51166 -0.00112528 9.42387 -0.000355662 9.33535C0.000413008 9.24683 0.0188046 9.15935 0.0537444 9.07802C0.0886832 8.99668 0.139471 8.92312 0.203144 8.86162Z" fill="white"/>
</svg>
