<svg width="22" height="20" viewBox="0 0 22 20" fill="none" xmlns="http://www.w3.org/2000/svg">
<path d="M20.896 5.03444C20.341 5.63244 18.807 7.21144 16.577 8.93144C14.239 10.7354 11.591 12.1894 11.479 12.2504C11.33 12.3324 11.165 12.3734 11 12.3734C10.835 12.3734 10.67 12.3324 10.52 12.2504C10.409 12.1894 7.761 10.7354 5.422 8.93144C3.192 7.21144 1.658 5.63244 1.102 5.03344L0.513 4.40344C0.244 5.79044 0 7.61444 0 9.66444C0 14.1224 1.156 17.5164 1.206 17.6584C1.318 17.9824 1.589 18.2264 1.923 18.3044C2.101 18.3464 6.343 19.3274 11.001 19.3274C15.82 19.3274 19.915 18.3444 20.087 18.3024C20.417 18.2224 20.683 17.9804 20.795 17.6594C20.844 17.5184 22.001 14.1494 22.001 9.66344C22.001 7.59644 21.759 5.77744 21.492 4.39844L20.898 5.03444H20.896Z" fill="#0F3B41"/>
<path d="M2.56599 3.67C2.97499 4.11 4.47299 5.672 6.64399 7.346C8.28999 8.616 10.144 9.728 11 10.222C11.856 9.727 13.714 8.614 15.355 7.347C17.527 5.673 19.024 4.111 19.431 3.672L20.924 2.075C20.85 1.832 20.801 1.69 20.792 1.664C20.68 1.345 20.414 1.105 20.086 1.025C19.914 0.983 15.829 0 10.999 0C6.25499 0 2.09199 0.982 1.91699 1.024C1.58399 1.104 1.31599 1.347 1.20499 1.67C1.19599 1.697 1.14799 1.837 1.07599 2.077L2.56599 3.672V3.67Z" fill="#0F3B41"/>
</svg>
