<svg width="308" height="308" viewBox="0 0 308 308" fill="none" xmlns="http://www.w3.org/2000/svg">
<g filter="url(#filter0_d_2038_1715)">
<path d="M153.693 158.586C170.203 158.586 183.586 145.203 183.586 128.693C183.586 112.184 170.203 98.8 153.693 98.8C137.184 98.8 123.8 112.184 123.8 128.693C123.8 145.203 137.184 158.586 153.693 158.586Z" fill="url(#paint0_linear_2038_1715)"/>
</g>
<mask id="mask0_2038_1715" style="mask-type:luminance" maskUnits="userSpaceOnUse" x="124" y="99" width="60" height="60">
<path d="M183.046 99.8386H124.046V158.839H183.046V99.8386Z" fill="white"/>
</mask>
<g mask="url(#mask0_2038_1715)">
<path d="M170.754 129.338C174.827 129.338 178.129 126.037 178.129 121.963C178.129 117.89 174.827 114.588 170.754 114.588C166.681 114.588 163.379 117.89 163.379 121.963C163.379 126.037 166.681 129.338 170.754 129.338Z" fill="#FFFEF0"/>
<path d="M136.337 129.338C140.411 129.338 143.712 126.037 143.712 121.963C143.712 117.89 140.411 114.588 136.337 114.588C132.264 114.588 128.962 117.89 128.962 121.963C128.962 126.037 132.264 129.338 136.337 129.338Z" fill="#FFFEF0"/>
<path d="M153.546 124.422C158.977 124.422 163.379 120.019 163.379 114.588C163.379 109.158 158.977 104.755 153.546 104.755C148.115 104.755 143.712 109.158 143.712 114.588C143.712 120.019 148.115 124.422 153.546 124.422Z" fill="#FFFEF0"/>
<path d="M178.129 131.797H169.433C170.3 133.29 170.756 134.987 170.754 136.713V153.922H180.588C181.24 153.922 181.865 153.663 182.326 153.202C182.787 152.741 183.046 152.115 183.046 151.463V136.713C183.046 135.409 182.528 134.159 181.606 133.237C180.684 132.315 179.433 131.797 178.129 131.797Z" fill="#FFFEF0"/>
<path d="M137.66 131.797H128.963C127.659 131.797 126.408 132.315 125.486 133.237C124.564 134.159 124.046 135.409 124.046 136.713V151.463C124.046 152.115 124.305 152.741 124.766 153.202C125.227 153.663 125.852 153.922 126.504 153.922H136.338V136.713C136.336 134.986 136.793 133.29 137.66 131.797Z" fill="#FFFEF0"/>
<path d="M160.921 126.88H158.463L153.546 141.63L148.629 126.88H146.171C144.215 126.88 142.339 127.657 140.956 129.04C139.573 130.423 138.796 132.299 138.796 134.255V156.38C138.796 157.032 139.055 157.657 139.516 158.118C139.977 158.579 140.602 158.838 141.254 158.838H165.838C166.49 158.838 167.115 158.579 167.576 158.118C168.037 157.657 168.296 157.032 168.296 156.38V134.255C168.296 132.299 167.519 130.423 166.136 129.04C164.753 127.657 162.877 126.88 160.921 126.88Z" fill="#FFFEF0"/>
</g>
<defs>
<filter id="filter0_d_2038_1715" x="4.57764e-05" y="4.57764e-05" width="307.386" height="307.386" filterUnits="userSpaceOnUse" color-interpolation-filters="sRGB">
<feFlood flood-opacity="0" result="BackgroundImageFix"/>
<feColorMatrix in="SourceAlpha" type="matrix" values="0 0 0 0 0 0 0 0 0 0 0 0 0 0 0 0 0 0 127 0" result="hardAlpha"/>
<feOffset dy="25"/>
<feGaussianBlur stdDeviation="61.9"/>
<feComposite in2="hardAlpha" operator="out"/>
<feColorMatrix type="matrix" values="0 0 0 0 0 0 0 0 0 0 0 0 0 0 0 0 0 0 0.05 0"/>
<feBlend mode="normal" in2="BackgroundImageFix" result="effect1_dropShadow_2038_1715"/>
<feBlend mode="normal" in="SourceGraphic" in2="effect1_dropShadow_2038_1715" result="shape"/>
</filter>
<linearGradient id="paint0_linear_2038_1715" x1="123.8" y1="128.693" x2="169.734" y2="128.693" gradientUnits="userSpaceOnUse">
<stop stop-color="#F57C1B"/>
<stop offset="1" stop-color="#F8C522"/>
</linearGradient>
</defs>
</svg>
