<svg width="49" height="59" viewBox="0 0 49 59" fill="none" xmlns="http://www.w3.org/2000/svg">
<path d="M47.7794 48.4029H45.3506V27.6851C44.7717 27.9295 44.1485 28.0558 43.5186 28.0563H43.2569V48.4029H36.0648L33.6884 45.1957C33.5895 45.0623 33.5245 44.9074 33.499 44.7441C33.4735 44.5808 33.4882 44.4138 33.5419 44.2573L35.9287 37.3273C35.9829 37.1892 36.0062 37.0414 35.9972 36.8937C35.9881 36.746 35.947 36.6019 35.8764 36.4713C35.8124 36.3387 35.722 36.2201 35.6105 36.1226C35.499 36.0252 35.3687 35.9509 35.2273 35.9041L27.7527 33.3673H22.5183C21.9047 34.3202 21.0555 35.1041 20.0502 35.6452C19.0449 36.1864 17.9165 36.4671 16.7709 36.461H12.5102L6.05094 56.7251H1.04688C0.769226 56.7251 0.502949 56.8337 0.306622 57.0271C0.110295 57.2205 0 57.4828 0 57.7563C0 58.0298 0.110295 58.2921 0.306622 58.4855C0.502949 58.6789 0.769226 58.7876 1.04688 58.7876H19.4091C19.6053 58.788 19.7976 58.734 19.9642 58.6319C20.1308 58.5298 20.2649 58.3836 20.3512 58.2101L24.1933 50.4654H47.7794C48.057 50.4654 48.3233 50.3567 48.5196 50.1633C48.716 49.9699 48.8262 49.7076 48.8262 49.4341C48.8262 49.1606 48.716 48.8983 48.5196 48.7049C48.3233 48.5115 48.057 48.4029 47.7794 48.4029ZM27.9725 48.4029H23.5442C23.348 48.4025 23.1556 48.4564 22.9891 48.5585C22.8225 48.6606 22.6884 48.8068 22.602 48.9804L18.76 56.7251H15.0436L13.065 53.9613C12.9601 53.8119 12.8971 53.6379 12.8824 53.4568C12.8676 53.2757 12.9018 53.094 12.9812 52.9301L18.5192 41.6791C18.8325 41.0597 19.3149 40.5386 19.9122 40.1743C20.5095 39.8099 21.1981 39.6168 21.9006 39.6166L28.5378 39.7094C28.6959 39.706 28.8528 39.7378 28.9966 39.8026C29.1404 39.8674 29.2674 39.9634 29.3682 40.0835C29.4689 40.2036 29.5407 40.3446 29.5782 40.4959C29.6157 40.6472 29.6179 40.805 29.5847 40.9573L27.9725 48.4029ZM6.96172 32.8619C6.58677 32.382 6.327 31.8246 6.2019 31.2317C6.0768 30.6387 6.08961 30.0256 6.23938 29.4382L8.24937 21.4254C8.55905 20.1716 9.29049 19.058 10.3246 18.2659C11.3587 17.4738 12.6345 17.0499 13.9444 17.0632H19.1787C19.8188 17.0466 20.4543 17.1748 21.0362 17.438C21.6181 17.7012 22.131 18.0924 22.5354 18.5814C22.9399 19.0704 23.2251 19.6443 23.3691 20.2589C23.5131 20.8735 23.5121 21.5125 23.3662 22.1266L21.3772 30.8098C21.1515 31.8383 20.5739 32.7593 19.741 33.4183C18.9081 34.0773 17.8706 34.4343 16.8023 34.4294H10.207C9.58159 34.4235 8.96545 34.2796 8.40385 34.0084C7.84226 33.7371 7.34948 33.3454 6.96172 32.8619ZM7.86203 13.4641C7.8648 12.5825 8.22228 11.7379 8.85612 11.1155C9.48995 10.493 10.3484 10.1435 11.2434 10.1435H24.3398C25.2339 10.1435 26.0913 10.4934 26.7235 11.1161C27.3556 11.7388 27.7108 12.5834 27.7108 13.4641C27.7108 14.3448 27.3556 15.1894 26.7235 15.8122C26.0913 16.4349 25.2339 16.7848 24.3398 16.7848H23.6594C23.0691 16.2107 22.3693 15.7575 21.6002 15.4512C20.8312 15.145 20.0082 14.9919 19.1787 15.0007H13.9444C12.3941 15.0094 10.8803 15.4647 9.58937 16.3104C9.07066 16.03 8.63719 15.6184 8.33358 15.1182C8.02997 14.6179 7.86721 14.047 7.86203 13.4641ZM43.5186 19.0123H43.2569V15.1141C43.2569 14.8406 43.3672 14.5783 43.5635 14.3849C43.7598 14.1915 44.0261 14.0829 44.3037 14.0829C44.5814 14.0829 44.8477 14.1915 45.044 14.3849C45.2403 14.5783 45.3506 14.8406 45.3506 15.1141V19.3938C44.7739 19.1412 44.1497 19.0112 43.5186 19.0123ZM28.6739 16.7023L33.6675 20.4663C34.1988 20.8598 34.8452 21.0733 35.51 21.0748H43.5186C43.8601 21.053 44.2025 21.1004 44.5246 21.2141C44.8467 21.3279 45.1417 21.5055 45.3914 21.736C45.6411 21.9666 45.8401 22.2451 45.9761 22.5544C46.1122 22.8637 46.1824 23.1972 46.1824 23.5343C46.1824 23.8714 46.1122 24.2049 45.9761 24.5142C45.8401 24.8235 45.6411 25.102 45.3914 25.3325C45.1417 25.5631 44.8467 25.7407 44.5246 25.8544C44.2025 25.9682 43.8601 26.0156 43.5186 25.9938H35.0703C34.2229 25.9885 33.3933 25.753 32.673 25.3132L30.0872 23.7663C29.9422 23.6789 29.7778 23.6276 29.6082 23.6168C29.4385 23.606 29.2688 23.6361 29.1136 23.7044C28.9592 23.7709 28.8234 23.8732 28.7177 24.0024C28.6119 24.1317 28.5395 24.2842 28.5064 24.4469L27.0931 31.3048H23.3662L25.3448 22.6216C25.632 21.3554 25.5112 20.0324 24.9994 18.8369C25.7266 18.7443 26.4271 18.5074 27.0587 18.1405C27.6903 17.7736 28.2397 17.2843 28.6739 16.7023ZM35.667 5.97726C35.667 6.25076 35.5567 6.51306 35.3604 6.70646C35.1641 6.89986 34.8978 7.00851 34.6202 7.00851H29.9511V7.90569C29.9562 8.92798 29.6379 9.92643 29.0403 10.7623C28.5621 9.95046 27.8767 9.27594 27.0522 8.80561C26.2277 8.33528 25.2926 8.08548 24.3398 8.08101H19.6812C19.6762 8.02267 19.6762 7.96402 19.6812 7.90569V5.16257C19.6521 3.8224 20.1646 2.52571 21.106 1.55775C22.0474 0.589803 23.3405 0.0298794 24.701 0.00116145C26.0615 -0.0275565 27.3778 0.477283 28.3604 1.40462C29.3431 2.33196 29.9115 3.60583 29.9406 4.94601H34.6306C34.9065 4.94872 35.1701 5.05857 35.3641 5.25167C35.5582 5.44478 35.667 5.70553 35.667 5.97726Z" fill="#06833D"/>
</svg>
