<svg width="53" height="51" viewBox="0 0 53 51" fill="none" xmlns="http://www.w3.org/2000/svg">
<g clip-path="url(#clip0_2008_5161)">
<path d="M4.37565 5.21242C4.37837 2.33534 6.80507 0.00638469 9.79724 0.00921164C12.7894 0.0120386 15.2117 2.34558 15.209 5.22266C15.2063 8.09974 12.7796 10.4287 9.7874 10.4259C6.79523 10.423 4.37293 8.08951 4.37565 5.21242ZM32.5177 31.2807C28.934 31.2773 26.0151 34.0787 26.0118 37.5245L26.002 47.9412C26.0009 49.0933 26.9685 50.0255 28.1667 50.0266C29.3648 50.0277 30.3342 49.0974 30.3353 47.9453L30.3373 45.862L34.6706 45.8661L34.6686 47.9494C34.6675 49.1015 35.6352 50.0336 36.8333 50.0348C38.0315 50.0359 39.0009 49.1056 39.002 47.9535L39.0118 37.5368C39.0151 34.091 36.1014 31.2841 32.5177 31.2807ZM45.5275 20.8763C48.5197 20.8791 50.9464 18.5502 50.9491 15.6731C50.9518 12.796 48.5295 10.4625 45.5374 10.4596C42.5452 10.4568 40.1185 12.7858 40.1158 15.6629C40.1131 18.5399 42.5354 20.8735 45.5275 20.8763ZM45.5256 22.9596C44.3296 22.9585 43.2221 23.2908 42.2574 23.8357C42.2548 26.5628 41.3756 28.3661 39.9484 29.996C42.031 31.898 43.3479 34.568 43.3451 37.5409L47.6785 37.545L47.6765 39.6284C47.6754 40.7804 48.643 41.7126 49.8412 41.7137C51.0394 41.7149 52.0087 40.7845 52.0098 39.6324L52.0197 29.2158C52.0229 25.77 49.1092 22.963 45.5256 22.9596ZM32.5197 29.1974C35.5118 29.2002 37.9385 26.8712 37.9413 23.9941C37.944 21.1171 35.5217 18.7835 32.5295 18.7807C29.5373 18.7779 27.1106 21.1068 27.1079 23.9839C27.1052 26.861 29.5275 29.1945 32.5197 29.1974ZM32.007 0.815612C30.8028 0.295724 29.5139 0.0278396 28.2139 0.0266114C27.0157 0.0254794 26.0464 0.955814 26.0453 2.1079L26.0354 12.5246L8.70209 12.5082C3.92243 12.5037 0.0319003 16.2375 0.0275582 20.8333L0.019685 29.1667C0.0167837 32.2375 1.76927 34.8975 4.34624 36.3457L4.3353 47.9207C4.33421 49.0728 5.30183 50.005 6.5 50.0061C7.69817 50.0073 8.66755 49.0769 8.66863 47.9248L8.67848 37.5082L13.0118 37.5123L13.002 47.9289C13.0009 49.081 13.9685 50.0132 15.1667 50.0143C16.3648 50.0154 17.3342 49.0851 17.3353 47.933L17.3648 16.683L28.1982 16.6933C29.3963 16.6944 30.3657 15.7641 30.3668 14.612L30.3702 10.9662L38.0981 7.04637C39.3577 6.21631 39.3596 4.27881 38.1015 3.44429L32.007 0.815612Z" fill="#06833D"/>
</g>
<defs>
<clipPath id="clip0_2008_5161">
<rect width="52" height="50" fill="white" transform="translate(0.0472412) rotate(0.0541321)"/>
</clipPath>
</defs>
</svg>
