<svg width="308" height="308" viewBox="0 0 308 308" fill="none" xmlns="http://www.w3.org/2000/svg">
<g filter="url(#filter0_d_2038_1716)">
<path d="M153.693 158.586C170.203 158.586 183.586 145.203 183.586 128.693C183.586 112.184 170.203 98.8 153.693 98.8C137.184 98.8 123.8 112.184 123.8 128.693C123.8 145.203 137.184 158.586 153.693 158.586Z" fill="url(#paint0_linear_2038_1716)"/>
</g>
<path d="M144.921 151.435H152.421V160.497H144.921V151.435Z" fill="#FEFEF0"/>
<path d="M173.046 136.935C170.559 136.935 168.175 137.889 166.417 139.589C164.659 141.288 163.671 143.593 163.671 145.997C163.671 154.063 171.583 159.899 171.921 160.135C172.245 160.37 172.64 160.497 173.046 160.497C173.452 160.497 173.846 160.37 174.171 160.135C174.508 159.899 182.421 154.063 182.421 145.997C182.421 143.593 181.433 141.288 179.675 139.589C177.917 137.889 175.532 136.935 173.046 136.935ZM173.046 149.622C172.051 149.622 171.098 149.24 170.394 148.56C169.691 147.88 169.296 146.958 169.296 145.997C169.296 145.036 169.691 144.114 170.394 143.434C171.098 142.754 172.051 142.372 173.046 142.372C174.04 142.372 174.994 142.754 175.698 143.434C176.401 144.114 176.796 145.036 176.796 145.997C176.796 146.958 176.401 147.88 175.698 148.56C174.994 149.24 174.04 149.622 173.046 149.622Z" fill="#FEFEF0"/>
<path d="M163.671 137.134V113.372C163.671 112.411 163.276 111.489 162.573 110.809C161.869 110.129 160.915 109.747 159.921 109.747H137.421C136.426 109.747 135.473 110.129 134.769 110.809C134.066 111.489 133.671 112.411 133.671 113.372V158.685C133.671 159.165 133.868 159.626 134.22 159.966C134.572 160.306 135.049 160.497 135.546 160.497H141.171V149.622C141.171 149.141 141.368 148.68 141.72 148.34C142.072 148 142.549 147.81 143.046 147.81H154.296C154.793 147.81 155.27 148 155.622 148.34C155.973 148.68 156.171 149.141 156.171 149.622V160.497H161.796C162.293 160.497 162.77 160.306 163.122 159.966C163.473 159.626 163.671 159.165 163.671 158.685V156.872C161.313 153.697 160.005 149.905 159.921 145.997C159.925 142.683 161.271 139.501 163.671 137.134ZM144.921 142.372H143.046C142.549 142.372 142.072 142.181 141.72 141.841C141.368 141.501 141.171 141.04 141.171 140.56C141.171 140.079 141.368 139.618 141.72 139.278C142.072 138.938 142.549 138.747 143.046 138.747H144.921C145.418 138.747 145.895 138.938 146.247 139.278C146.598 139.618 146.796 140.079 146.796 140.56C146.796 141.04 146.598 141.501 146.247 141.841C145.895 142.181 145.418 142.372 144.921 142.372ZM144.921 135.122H143.046C142.549 135.122 142.072 134.931 141.72 134.591C141.368 134.251 141.171 133.79 141.171 133.31C141.171 132.829 141.368 132.368 141.72 132.028C142.072 131.688 142.549 131.497 143.046 131.497H144.921C145.418 131.497 145.895 131.688 146.247 132.028C146.598 132.368 146.796 132.829 146.796 133.31C146.796 133.79 146.598 134.251 146.247 134.591C145.895 134.931 145.418 135.122 144.921 135.122ZM144.921 127.872H143.046C142.549 127.872 142.072 127.681 141.72 127.341C141.368 127.001 141.171 126.54 141.171 126.06C141.171 125.579 141.368 125.118 141.72 124.778C142.072 124.438 142.549 124.247 143.046 124.247H144.921C145.418 124.247 145.895 124.438 146.247 124.778C146.598 125.118 146.796 125.579 146.796 126.06C146.796 126.54 146.598 127.001 146.247 127.341C145.895 127.681 145.418 127.872 144.921 127.872ZM144.921 120.622H143.046C142.549 120.622 142.072 120.431 141.72 120.091C141.368 119.751 141.171 119.29 141.171 118.81C141.171 118.329 141.368 117.868 141.72 117.528C142.072 117.188 142.549 116.997 143.046 116.997H144.921C145.418 116.997 145.895 117.188 146.247 117.528C146.598 117.868 146.796 118.329 146.796 118.81C146.796 119.29 146.598 119.751 146.247 120.091C145.895 120.431 145.418 120.622 144.921 120.622ZM154.296 142.372H152.421C151.924 142.372 151.447 142.181 151.095 141.841C150.743 141.501 150.546 141.04 150.546 140.56C150.546 140.079 150.743 139.618 151.095 139.278C151.447 138.938 151.924 138.747 152.421 138.747H154.296C154.793 138.747 155.27 138.938 155.622 139.278C155.973 139.618 156.171 140.079 156.171 140.56C156.171 141.04 155.973 141.501 155.622 141.841C155.27 142.181 154.793 142.372 154.296 142.372ZM154.296 135.122H152.421C151.924 135.122 151.447 134.931 151.095 134.591C150.743 134.251 150.546 133.79 150.546 133.31C150.546 132.829 150.743 132.368 151.095 132.028C151.447 131.688 151.924 131.497 152.421 131.497H154.296C154.793 131.497 155.27 131.688 155.622 132.028C155.973 132.368 156.171 132.829 156.171 133.31C156.171 133.79 155.973 134.251 155.622 134.591C155.27 134.931 154.793 135.122 154.296 135.122ZM154.296 127.872H152.421C151.924 127.872 151.447 127.681 151.095 127.341C150.743 127.001 150.546 126.54 150.546 126.06C150.546 125.579 150.743 125.118 151.095 124.778C151.447 124.438 151.924 124.247 152.421 124.247H154.296C154.793 124.247 155.27 124.438 155.622 124.778C155.973 125.118 156.171 125.579 156.171 126.06C156.171 126.54 155.973 127.001 155.622 127.341C155.27 127.681 154.793 127.872 154.296 127.872ZM154.296 120.622H152.421C151.924 120.622 151.447 120.431 151.095 120.091C150.743 119.751 150.546 119.29 150.546 118.81C150.546 118.329 150.743 117.868 151.095 117.528C151.447 117.188 151.924 116.997 152.421 116.997H154.296C154.793 116.997 155.27 117.188 155.622 117.528C155.973 117.868 156.171 118.329 156.171 118.81C156.171 119.29 155.973 119.751 155.622 120.091C155.27 120.431 154.793 120.622 154.296 120.622Z" fill="#FEFEF0"/>
<defs>
<filter id="filter0_d_2038_1716" x="4.57764e-05" y="4.57764e-05" width="307.386" height="307.386" filterUnits="userSpaceOnUse" color-interpolation-filters="sRGB">
<feFlood flood-opacity="0" result="BackgroundImageFix"/>
<feColorMatrix in="SourceAlpha" type="matrix" values="0 0 0 0 0 0 0 0 0 0 0 0 0 0 0 0 0 0 127 0" result="hardAlpha"/>
<feOffset dy="25"/>
<feGaussianBlur stdDeviation="61.9"/>
<feComposite in2="hardAlpha" operator="out"/>
<feColorMatrix type="matrix" values="0 0 0 0 0 0 0 0 0 0 0 0 0 0 0 0 0 0 0.05 0"/>
<feBlend mode="normal" in2="BackgroundImageFix" result="effect1_dropShadow_2038_1716"/>
<feBlend mode="normal" in="SourceGraphic" in2="effect1_dropShadow_2038_1716" result="shape"/>
</filter>
<linearGradient id="paint0_linear_2038_1716" x1="123.8" y1="128.693" x2="169.734" y2="128.693" gradientUnits="userSpaceOnUse">
<stop stop-color="#F57C1B"/>
<stop offset="1" stop-color="#F8C522"/>
</linearGradient>
</defs>
</svg>
