<svg width="63" height="56" viewBox="0 0 63 56" fill="none" xmlns="http://www.w3.org/2000/svg">
<path d="M50.4714 31.9048C43.9293 31.9048 38.6271 37.1302 38.6271 43.5774C38.6271 50.0247 43.9293 55.25 50.4714 55.25C57.0134 55.25 62.3156 50.0247 62.3156 43.5774C62.3156 37.1302 57.0134 31.9048 50.4714 31.9048ZM55.7154 43.0802L49.9323 47.6702C49.5873 47.9443 49.156 48.093 48.7162 48.093C48.6429 48.093 48.5695 48.0888 48.4941 48.0803C47.9787 48.0229 47.5087 47.7637 47.1895 47.3599L44.9169 44.5039C44.2549 43.6709 44.4037 42.4703 45.2446 41.8179C46.092 41.1655 47.306 41.3122 47.9701 42.1409L49.0288 43.4733L53.2809 40.0967C54.1176 39.4315 55.338 39.5675 56.0108 40.3878C56.6835 41.2123 56.552 42.4172 55.7154 43.0802Z" fill="#06833D"/>
<path d="M35.3927 43.5795C35.3927 35.3855 42.1568 28.7194 50.4713 28.7194C53.2335 28.7194 55.8167 29.4674 58.0463 30.7509V11.6238C58.0463 6.8 54.0787 2.89 49.1841 2.89H44.5266V1.9125C44.5266 0.85 43.6425 0 42.5859 0C41.5078 0 40.6453 0.85 40.6453 1.9125V2.89H17.4225V1.9125C17.4225 0.85 16.56 0 15.4819 0C14.4037 0 13.5413 0.85 13.5413 1.9125V2.89H8.86219C3.9675 2.89 0 6.8 0 11.6238V42.9463C0 47.77 3.9675 51.68 8.86219 51.68H37.8465C36.3005 49.3468 35.3927 46.5673 35.3927 43.5795ZM42.9762 20.5998C44.2139 20.5998 45.2166 21.5879 45.2166 22.8076C45.2166 24.0274 44.2139 25.0155 42.9762 25.0155C41.7385 25.0155 40.7359 24.0274 40.7359 22.8076C40.7359 21.5879 41.7385 20.5998 42.9762 20.5998ZM15.0808 37.0451C13.8431 37.0451 12.8405 36.057 12.8405 34.8373C12.8405 33.6175 13.8431 32.6294 15.0808 32.6294C16.3185 32.6294 17.3212 33.6175 17.3212 34.8373C17.3212 36.057 16.3185 37.0451 15.0808 37.0451ZM15.0808 25.0155C13.8431 25.0155 12.8405 24.0274 12.8405 22.8076C12.8405 21.5879 13.8431 20.5998 15.0808 20.5998C16.3185 20.5998 17.3212 21.5879 17.3212 22.8076C17.3212 24.0274 16.3185 25.0155 15.0808 25.0155ZM29.0296 37.0451C27.7919 37.0451 26.7892 36.057 26.7892 34.8373C26.7892 33.6175 27.7919 32.6294 29.0296 32.6294C30.2673 32.6294 31.2699 33.6175 31.2699 34.8373C31.2699 36.057 30.2651 37.0451 29.0296 37.0451ZM29.0296 25.0155C27.7919 25.0155 26.7892 24.0274 26.7892 22.8076C26.7892 21.5879 27.7919 20.5998 29.0296 20.5998C30.2673 20.5998 31.2699 21.5879 31.2699 22.8076C31.2699 24.0274 30.2651 25.0155 29.0296 25.0155Z" fill="#06833D"/>
</svg>
