<svg width="308" height="308" viewBox="0 0 308 308" fill="none" xmlns="http://www.w3.org/2000/svg">
<g filter="url(#filter0_d_2038_1713)">
<path d="M153.693 158.586C170.203 158.586 183.586 145.203 183.586 128.693C183.586 112.184 170.203 98.8 153.693 98.8C137.184 98.8 123.8 112.184 123.8 128.693C123.8 145.203 137.184 158.586 153.693 158.586Z" fill="url(#paint0_linear_2038_1713)"/>
</g>
<path fill-rule="evenodd" clip-rule="evenodd" d="M137.934 137.167V131.687H127.471C127.072 131.687 126.712 131.444 126.559 131.07C126.405 130.697 126.487 130.266 126.767 129.978L152.962 103.007C153.148 102.816 153.401 102.708 153.666 102.708C153.93 102.708 154.184 102.816 154.369 103.007L180.565 129.978C180.845 130.266 180.927 130.697 180.773 131.07C180.619 131.444 180.26 131.687 179.861 131.687H169.397V137.167C168.779 136.895 168.115 136.711 167.421 136.629V130.683C167.421 130.128 167.863 129.679 168.409 129.679H177.498L153.666 105.141L129.834 129.679H138.923C139.468 129.679 139.911 130.128 139.911 130.683V136.629C139.216 136.711 138.553 136.895 137.934 137.167ZM140.734 138.588C143.542 138.588 145.821 140.904 145.821 143.756C145.821 146.608 143.542 148.924 140.734 148.924C137.927 148.924 135.647 146.608 135.647 143.756C135.647 140.904 137.927 138.588 140.734 138.588ZM166.597 138.588C169.405 138.588 171.684 140.904 171.684 143.756C171.684 146.608 169.405 148.924 166.597 148.924C163.79 148.924 161.51 146.608 161.51 143.756C161.51 140.904 163.79 138.588 166.597 138.588ZM176.003 152.758C176.042 152.758 176.082 152.757 176.121 152.757C179.596 152.757 182.498 155.246 183.195 158.564C183.231 158.747 183.185 158.937 183.068 159.081C182.952 159.226 182.778 159.31 182.594 159.31C181.273 159.314 178.592 159.314 178.592 159.314C178.592 159.243 178.589 159.172 178.581 159.101C178.33 156.715 177.405 154.534 176.003 152.758ZM128.739 159.314H124.738C124.553 159.314 124.377 159.23 124.26 159.084C124.143 158.939 124.096 158.747 124.132 158.563C124.833 155.246 127.735 152.757 131.21 152.757C131.25 152.757 131.289 152.758 131.329 152.758C129.927 154.534 129.001 156.715 128.75 159.101C128.743 159.172 128.739 159.243 128.739 159.314ZM176.121 151.502C174.107 151.502 172.466 149.833 172.466 147.787C172.466 145.741 174.107 144.071 176.121 144.071C178.137 144.071 179.779 145.741 179.779 147.787C179.779 149.833 178.137 151.502 176.121 151.502ZM131.21 151.502C129.194 151.502 127.553 149.833 127.553 147.787C127.553 145.741 129.194 144.071 131.21 144.071C133.224 144.071 134.866 145.741 134.866 147.787C134.866 149.833 133.224 151.502 131.21 151.502ZM137.969 159.314H131.425C131.243 159.314 131.07 159.233 130.953 159.092C130.836 158.95 130.786 158.764 130.816 158.582C131.669 153.803 135.785 150.178 140.735 150.178C141.085 150.178 141.43 150.197 141.771 150.232C139.705 152.667 138.337 155.729 137.98 159.1C137.973 159.171 137.969 159.243 137.969 159.314ZM166.013 150.195C166.206 150.184 166.4 150.178 166.596 150.178C171.547 150.178 175.662 153.803 176.513 158.582C176.543 158.763 176.493 158.949 176.376 159.09C176.259 159.23 176.088 159.311 175.907 159.311C174.169 159.314 169.843 159.314 169.843 159.314C169.843 159.243 169.839 159.172 169.831 159.101C169.475 155.713 168.096 152.636 166.013 150.195ZM140.04 158.594C141.107 151.788 146.909 146.586 153.906 146.586C160.907 146.586 166.709 151.788 167.774 158.594C167.801 158.774 167.749 158.958 167.631 159.096C167.514 159.235 167.343 159.314 167.163 159.314C163.284 159.314 144.529 159.314 140.649 159.312C140.47 159.312 140.299 159.233 140.182 159.095C140.065 158.957 140.013 158.774 140.04 158.594ZM153.906 145.331C149.996 145.331 146.81 142.09 146.81 138.118C146.81 134.147 149.996 130.905 153.906 130.905C157.819 130.905 161.006 134.147 161.006 138.118C161.006 142.09 157.819 145.331 153.906 145.331Z" fill="#FFFEF0"/>
<defs>
<filter id="filter0_d_2038_1713" x="4.57764e-05" y="4.57764e-05" width="307.386" height="307.386" filterUnits="userSpaceOnUse" color-interpolation-filters="sRGB">
<feFlood flood-opacity="0" result="BackgroundImageFix"/>
<feColorMatrix in="SourceAlpha" type="matrix" values="0 0 0 0 0 0 0 0 0 0 0 0 0 0 0 0 0 0 127 0" result="hardAlpha"/>
<feOffset dy="25"/>
<feGaussianBlur stdDeviation="61.9"/>
<feComposite in2="hardAlpha" operator="out"/>
<feColorMatrix type="matrix" values="0 0 0 0 0 0 0 0 0 0 0 0 0 0 0 0 0 0 0.05 0"/>
<feBlend mode="normal" in2="BackgroundImageFix" result="effect1_dropShadow_2038_1713"/>
<feBlend mode="normal" in="SourceGraphic" in2="effect1_dropShadow_2038_1713" result="shape"/>
</filter>
<linearGradient id="paint0_linear_2038_1713" x1="123.8" y1="128.693" x2="169.734" y2="128.693" gradientUnits="userSpaceOnUse">
<stop stop-color="#F57C1B"/>
<stop offset="1" stop-color="#F8C522"/>
</linearGradient>
</defs>
</svg>
