<svg width="308" height="308" viewBox="0 0 308 308" fill="none" xmlns="http://www.w3.org/2000/svg">
<g filter="url(#filter0_d_2038_1717)">
<path d="M153.693 158.586C170.203 158.586 183.586 145.203 183.586 128.693C183.586 112.184 170.203 98.8 153.693 98.8C137.184 98.8 123.8 112.184 123.8 128.693C123.8 145.203 137.184 158.586 153.693 158.586Z" fill="url(#paint0_linear_2038_1717)"/>
</g>
<path d="M163.932 133.662C165.307 137.456 168.252 141.04 171.663 141.04C175.077 141.04 178.025 137.446 179.399 133.647C179.929 133.488 180.486 132.469 180.713 131.168C180.96 129.753 180.726 128.518 180.192 128.317C180.167 127.858 180.125 127.393 180.061 126.928C179.847 122.928 178.64 121.14 176.856 120.342C175.592 119.314 173.904 118.674 171.663 118.674C169.427 118.674 167.744 119.298 166.486 120.303C164.522 121.138 163.236 123.127 163.163 127.846C163.152 127.997 163.141 128.146 163.133 128.295C162.55 128.41 162.286 129.692 162.542 131.168C162.78 132.53 163.38 133.582 163.932 133.662Z" fill="#FFFEF0"/>
<path d="M177.29 141.226L173.62 149.193L172.702 146.26C172.865 146.103 172.973 145.879 173.012 145.618L173.71 143.932C173.71 143.442 173.286 143.046 172.763 143.046H170.492C169.97 143.046 169.546 143.443 169.546 143.932L170.243 145.618C170.28 145.944 170.412 146.18 170.611 146.328L169.665 149.256L165.965 141.226C162.583 143.885 159.729 143.828 157.658 144.424C158.545 144.822 159.354 145.402 160.036 146.338C161.424 148.241 162.015 151.283 162.015 156.51C162.015 157.044 161.918 157.555 161.724 158.04C164.763 158.634 168.306 158.927 171.593 158.927C179.62 158.927 189.245 157.182 189.245 153.558C189.243 140.312 184.447 146.854 177.29 141.226Z" fill="#FFFEF0"/>
<path d="M130.05 132.634C131.701 137.186 135.234 141.488 139.327 141.488C143.426 141.488 146.962 137.175 148.611 132.616C149.247 132.425 149.915 131.202 150.187 129.641C150.483 127.942 150.203 126.461 149.562 126.219C149.532 125.668 149.481 125.11 149.405 124.553C149.148 119.753 147.699 117.607 145.558 116.649C144.043 115.416 142.016 114.647 139.327 114.647C136.644 114.647 134.624 115.397 133.115 116.602C130.758 117.604 129.215 119.991 129.127 125.654C129.113 125.834 129.101 126.014 129.091 126.193C128.392 126.33 128.074 127.869 128.383 129.641C128.668 131.276 129.387 132.538 130.05 132.634Z" fill="#FFFEF0"/>
<path d="M146.08 141.711L141.675 151.272L140.573 147.753C140.77 147.565 140.899 147.296 140.945 146.983L141.782 144.959C141.782 144.371 141.274 143.894 140.646 143.894H137.921C137.294 143.894 136.785 144.372 136.785 144.959L137.623 146.983C137.667 147.373 137.825 147.658 138.064 147.834L136.928 151.347L132.488 141.711C123.901 148.465 118.144 140.614 118.144 156.51C118.144 160.86 129.61 162.953 139.242 162.953C148.874 162.953 160.424 160.86 160.424 156.51C160.424 140.614 154.667 148.465 146.08 141.711Z" fill="#FFFEF0"/>
<defs>
<filter id="filter0_d_2038_1717" x="4.57764e-05" y="4.57764e-05" width="307.386" height="307.386" filterUnits="userSpaceOnUse" color-interpolation-filters="sRGB">
<feFlood flood-opacity="0" result="BackgroundImageFix"/>
<feColorMatrix in="SourceAlpha" type="matrix" values="0 0 0 0 0 0 0 0 0 0 0 0 0 0 0 0 0 0 127 0" result="hardAlpha"/>
<feOffset dy="25"/>
<feGaussianBlur stdDeviation="61.9"/>
<feComposite in2="hardAlpha" operator="out"/>
<feColorMatrix type="matrix" values="0 0 0 0 0 0 0 0 0 0 0 0 0 0 0 0 0 0 0.05 0"/>
<feBlend mode="normal" in2="BackgroundImageFix" result="effect1_dropShadow_2038_1717"/>
<feBlend mode="normal" in="SourceGraphic" in2="effect1_dropShadow_2038_1717" result="shape"/>
</filter>
<linearGradient id="paint0_linear_2038_1717" x1="123.8" y1="128.693" x2="169.734" y2="128.693" gradientUnits="userSpaceOnUse">
<stop stop-color="#F57C1B"/>
<stop offset="1" stop-color="#F8C522"/>
</linearGradient>
</defs>
</svg>
