<svg width="30" height="30" viewBox="0 0 30 30" fill="none" xmlns="http://www.w3.org/2000/svg">
<g clip-path="url(#clip0_2039_1826)">
<g filter="url(#filter0_d_2039_1826)">
<path d="M15.1548 29.511C23.0838 29.511 29.5108 23.084 29.5108 15.156C29.5108 7.22698 23.0838 0.799988 15.1548 0.799988C7.2268 0.799988 0.799805 7.22698 0.799805 15.156C0.799805 23.084 7.2268 29.511 15.1548 29.511Z" fill="url(#paint0_linear_2039_1826)"/>
</g>
<path d="M10.685 18.684L18.213 11.156H13.156C12.979 11.156 12.81 11.085 12.685 10.96C12.559 10.835 12.489 10.666 12.489 10.489C12.489 10.312 12.559 10.143 12.685 10.018C12.81 9.89202 12.979 9.82202 13.156 9.82202H19.823C19.91 9.82302 19.997 9.84002 20.077 9.87402C20.241 9.94102 20.37 10.071 20.438 10.234C20.471 10.315 20.489 10.402 20.489 10.489V17.156C20.489 17.332 20.419 17.502 20.294 17.627C20.169 17.752 19.999 17.822 19.823 17.822C19.646 17.822 19.476 17.752 19.351 17.627C19.226 17.502 19.156 17.332 19.156 17.156V12.098L11.627 19.627C11.566 19.691 11.492 19.741 11.411 19.776C11.33 19.811 11.242 19.83 11.154 19.83C11.065 19.831 10.977 19.814 10.895 19.781C10.813 19.747 10.739 19.698 10.676 19.635C10.614 19.573 10.564 19.498 10.531 19.416C10.497 19.334 10.48 19.247 10.481 19.158C10.482 19.069 10.5 18.982 10.535 18.901C10.57 18.819 10.621 18.746 10.685 18.684Z" fill="white"/>
</g>
<defs>
<filter id="filter0_d_2039_1826" x="-123" y="-98" width="276.311" height="276.311" filterUnits="userSpaceOnUse" color-interpolation-filters="sRGB">
<feFlood flood-opacity="0" result="BackgroundImageFix"/>
<feColorMatrix in="SourceAlpha" type="matrix" values="0 0 0 0 0 0 0 0 0 0 0 0 0 0 0 0 0 0 127 0" result="hardAlpha"/>
<feOffset dy="25"/>
<feGaussianBlur stdDeviation="61.9"/>
<feComposite in2="hardAlpha" operator="out"/>
<feColorMatrix type="matrix" values="0 0 0 0 0 0 0 0 0 0 0 0 0 0 0 0 0 0 0.05 0"/>
<feBlend mode="normal" in2="BackgroundImageFix" result="effect1_dropShadow_2039_1826"/>
<feBlend mode="normal" in="SourceGraphic" in2="effect1_dropShadow_2039_1826" result="shape"/>
</filter>
<linearGradient id="paint0_linear_2039_1826" x1="0.799805" y1="15.156" x2="29.5108" y2="15.156" gradientUnits="userSpaceOnUse">
<stop stop-color="#10713A"/>
<stop offset="1" stop-color="#008C3D"/>
</linearGradient>
<clipPath id="clip0_2039_1826">
<rect width="30" height="30" fill="white"/>
</clipPath>
</defs>
</svg>
