<svg width="48" height="47" viewBox="0 0 48 47" fill="none" xmlns="http://www.w3.org/2000/svg">
<g clip-path="url(#clip0_2008_5174)">
<path d="M33.17 18.8312L30.42 11.7498H35.264C37.1058 11.7542 38.9209 12.1817 40.5632 12.998C42.2056 13.8143 43.6293 14.9966 44.72 16.4498L46.294 18.5551C46.9648 19.4511 47.4537 20.4649 47.734 21.5415H33.904C33.762 20.6144 33.5159 19.7054 33.17 18.8312ZM24 7.83318C24.5304 7.83318 25.0391 7.62685 25.4142 7.25959C25.7893 6.89233 26 6.39422 26 5.87484V1.95818C26 1.43879 25.7893 0.940683 25.4142 0.573424C25.0391 0.206165 24.5304 -0.000158389 24 -0.000158389C23.4696 -0.000158389 22.9609 0.206165 22.5858 0.573424C22.2107 0.940683 22 1.43879 22 1.95818V5.87484C22 6.39422 22.2107 6.89233 22.5858 7.25959C22.9609 7.62685 23.4696 7.83318 24 7.83318ZM29.444 20.2549L26.142 11.7498H21.876L18.52 20.4683C18.3913 20.8194 18.2844 21.1778 18.2 21.5415H29.842C29.7421 21.1036 29.6091 20.6735 29.444 20.2549ZM33.106 7.63734C33.3421 7.75359 33.5995 7.82287 33.8631 7.84115C34.1267 7.85944 34.3914 7.82639 34.6419 7.74389C34.8925 7.6614 35.1238 7.53111 35.3226 7.36056C35.5213 7.19 35.6836 6.98255 35.8 6.75022L37.8 2.83355C38.0371 2.3687 38.0759 1.83067 37.9079 1.33781C37.7398 0.844945 37.3787 0.437631 36.904 0.205467C36.4293 -0.0266973 35.8798 -0.0646925 35.3764 0.0998394C34.8731 0.264371 34.4571 0.617953 34.22 1.0828L32.22 4.99947C32.1006 5.2295 32.0288 5.48037 32.0087 5.73767C31.9886 5.99497 32.0206 6.25362 32.103 6.49876C32.1853 6.74389 32.3163 6.97067 32.4884 7.16607C32.6606 7.36147 32.8704 7.52163 33.106 7.63734ZM23.976 36.9869L29.548 26.6998C29.6894 26.2942 29.801 25.8793 29.882 25.4582H18C18.0899 25.9626 18.2237 26.4586 18.4 26.9406L23.976 36.9869ZM14.8 19.0525L17.6 11.7498H12.766C10.9621 11.7545 9.18326 12.1645 7.56671 12.9485C5.95016 13.7325 4.53901 14.8694 3.442 16.2716L1.8 18.3749C1.07653 19.3167 0.559718 20.3948 0.282004 21.5415H14.082C14.2357 20.6904 14.4763 19.8566 14.8 19.0525ZM33.938 25.4582C33.812 26.394 33.5813 27.3134 33.25 28.1998C33.22 28.2782 25.738 42.0531 25.732 42.0551C25.5691 42.3649 25.3224 42.6251 25.019 42.8073C24.7155 42.9895 24.3668 43.0867 24.0109 43.0883C23.6549 43.0899 23.3053 42.9959 23.0001 42.8165C22.6949 42.6371 22.4459 42.3791 22.28 42.0707C22.28 42.0707 14.732 28.5347 14.7 28.4505C14.3418 27.4844 14.1027 26.4798 13.988 25.4582H0.242004C0.611881 27.2105 1.54219 28.8018 2.898 30.0015L18.878 45.0944C20.2815 46.32 22.0974 46.9956 23.978 46.992C25.8984 46.9883 27.75 46.291 29.178 45.0337L45.05 30.0857C46.4408 28.8678 47.3974 27.2463 47.78 25.4582H33.938ZM12.21 6.75022C12.4471 7.21636 12.8636 7.57119 13.3679 7.73664C13.8722 7.90209 14.4229 7.86461 14.899 7.63245C15.3751 7.40028 15.7374 6.99245 15.9064 6.49867C16.0754 6.00489 16.0371 5.46561 15.8 4.99947L13.8 1.0828C13.6826 0.852631 13.5201 0.647358 13.3216 0.478702C13.1232 0.310045 12.8928 0.181307 12.6436 0.0998394C12.1402 -0.0646925 11.5907 -0.0266973 11.116 0.205467C10.6413 0.437631 10.2802 0.844945 10.1121 1.33781C9.9441 1.83067 9.9829 2.3687 10.22 2.83355L12.21 6.75022Z" fill="#06833D"/>
</g>
<defs>
<clipPath id="clip0_2008_5174">
<rect width="48" height="47" fill="white"/>
</clipPath>
</defs>
</svg>
