<svg width="18" height="22" viewBox="0 0 18 22" fill="none" xmlns="http://www.w3.org/2000/svg">
<g clip-path="url(#clip0_960_2)">
<path d="M8.99902 0.874207C13.3463 0.874207 16.8329 4.55283 16.833 9.03925L16.8223 9.45819C16.7226 11.5403 15.8738 13.42 14.5469 14.8058L14.543 14.8098L9.35742 20.1232L8.99902 20.4904L8.6416 20.1232L3.45703 14.8107L3.45312 14.8068C2.03775 13.3273 1.16612 11.2876 1.16602 9.0412C1.16602 4.55001 4.65423 0.874349 8.99902 0.874207ZM8.99902 5.70721C7.27063 5.70736 5.83301 7.17891 5.83301 9.0412C5.83322 10.9033 7.2708 12.3741 8.99902 12.3742C10.7274 12.3742 12.1658 10.9034 12.166 9.0412C12.166 7.17882 10.7275 5.70721 8.99902 5.70721Z" fill="#FF3646" stroke="white"/>
</g>
<defs>
<clipPath id="clip0_960_2">
<rect width="18" height="22" fill="white"/>
</clipPath>
</defs>
</svg>
