<svg width="29" height="29" viewBox="0 0 29 29" fill="none" xmlns="http://www.w3.org/2000/svg">
<g clip-path="url(#clip0_1464_25)">
<g filter="url(#filter0_d_1464_25)">
<path d="M14.8008 28.7998C22.5328 28.7998 28.8008 22.5318 28.8008 14.7998C28.8008 7.06782 22.5328 0.799805 14.8008 0.799805C7.06879 0.799805 0.800781 7.06782 0.800781 14.7998C0.800781 22.5318 7.06879 28.7998 14.8008 28.7998Z" fill="url(#paint0_linear_1464_25)"/>
</g>
<mask id="mask0_1464_25" style="mask-type:luminance" maskUnits="userSpaceOnUse" x="7" y="6" width="15" height="16">
<path d="M21.8008 6.7998H7.80078V21.7998H21.8008V6.7998Z" fill="white"/>
</mask>
<g mask="url(#mask0_1464_25)">
<path d="M20.719 8.44561C18.273 9.30561 15.155 11.6066 12.28 15.5476L10.581 13.5266C10.319 13.2066 9.83398 13.2066 9.57198 13.5266L8.32098 15.0276C8.07898 15.3276 8.09697 15.7676 8.35897 16.0276L12.205 19.9886C12.522 20.3086 13.045 20.2286 13.269 19.8086C15.323 15.8276 17.526 12.8666 21.26 9.46561C21.708 9.04561 21.298 8.24561 20.719 8.44561Z" fill="white"/>
</g>
</g>
<defs>
<filter id="filter0_d_1464_25" x="-122.999" y="-98.0002" width="275.6" height="275.6" filterUnits="userSpaceOnUse" color-interpolation-filters="sRGB">
<feFlood flood-opacity="0" result="BackgroundImageFix"/>
<feColorMatrix in="SourceAlpha" type="matrix" values="0 0 0 0 0 0 0 0 0 0 0 0 0 0 0 0 0 0 127 0" result="hardAlpha"/>
<feOffset dy="25"/>
<feGaussianBlur stdDeviation="61.9"/>
<feComposite in2="hardAlpha" operator="out"/>
<feColorMatrix type="matrix" values="0 0 0 0 0 0 0 0 0 0 0 0 0 0 0 0 0 0 0.05 0"/>
<feBlend mode="normal" in2="BackgroundImageFix" result="effect1_dropShadow_1464_25"/>
<feBlend mode="normal" in="SourceGraphic" in2="effect1_dropShadow_1464_25" result="shape"/>
</filter>
<linearGradient id="paint0_linear_1464_25" x1="0.212781" y1="14.7998" x2="28.8008" y2="14.7998" gradientUnits="userSpaceOnUse">
<stop stop-color="#F57C1B"/>
<stop offset="1" stop-color="#F8C522"/>
</linearGradient>
<clipPath id="clip0_1464_25">
<rect width="29" height="29" fill="white"/>
</clipPath>
</defs>
</svg>
