<svg width="10" height="10" viewBox="0 0 10 10" fill="none" xmlns="http://www.w3.org/2000/svg">
<path d="M0.20351 8.86162L7.73218 1.33295L2.67485 1.33295C2.49803 1.33295 2.32847 1.26272 2.20344 1.13769C2.07842 1.01267 2.00818 0.843098 2.00818 0.666287C2.00818 0.489476 2.07842 0.319906 2.20344 0.194882C2.32847 0.0698577 2.49803 -0.000379622 2.67485 -0.000379607L9.34151 -0.000379024C9.42893 3.84741e-05 9.51543 0.0174738 9.59618 0.0509541C9.75946 0.118615 9.88919 0.248343 9.95685 0.411621C9.99033 0.492373 10.0078 0.578871 10.0082 0.666288L10.0082 7.33295C10.0082 7.50976 9.93794 7.67933 9.81292 7.80436C9.68789 7.92938 9.51832 7.99962 9.34151 7.99962C9.1647 7.99962 8.99513 7.92938 8.87011 7.80436C8.74508 7.67933 8.67485 7.50976 8.67485 7.33295L8.67485 2.27562L1.14618 9.80429C1.08468 9.86796 1.01112 9.91875 0.929781 9.95369C0.848445 9.98863 0.760964 10.007 0.672445 10.0078C0.583925 10.0086 0.49614 9.99169 0.414209 9.95817C0.332278 9.92465 0.257843 9.87514 0.195248 9.81255C0.132653 9.74995 0.0831499 9.67552 0.0496293 9.59359C0.0161087 9.51166 -0.000758909 9.42387 1.03098e-05 9.33535C0.000779529 9.24683 0.019171 9.15935 0.0541104 9.07802C0.0890497 8.99668 0.139837 8.92312 0.20351 8.86162Z" fill="#F57E1B"/>
</svg>
