<svg width="8" height="8" viewBox="0 0 8 8" fill="none" xmlns="http://www.w3.org/2000/svg">
<path d="M0.151582 6.60818L5.76569 0.994078L1.99445 0.994077C1.8626 0.994077 1.73615 0.941702 1.64292 0.848471C1.54969 0.755241 1.49732 0.628794 1.49732 0.496946C1.49732 0.365099 1.54969 0.238651 1.64292 0.145421C1.73615 0.0521909 1.8626 -0.000184849 1.99445 -0.000184838L6.96576 -0.000184403C7.03095 0.000126924 7.09545 0.0131284 7.15566 0.0380945C7.27742 0.0885488 7.37416 0.185287 7.42461 0.307043C7.44958 0.367259 7.46258 0.431761 7.46289 0.496947L7.46289 5.46826C7.46289 5.6001 7.41051 5.72655 7.31728 5.81978C7.22405 5.91301 7.09761 5.96539 6.96576 5.96539C6.83391 5.96539 6.70746 5.91301 6.61423 5.81978C6.521 5.72655 6.46863 5.6001 6.46863 5.46826L6.46863 1.69702L0.854526 7.31112C0.808667 7.3586 0.753811 7.39648 0.693159 7.42253C0.632507 7.44858 0.567273 7.4623 0.501265 7.46287C0.435256 7.46344 0.369794 7.45087 0.308699 7.42587C0.247603 7.40087 0.192097 7.36396 0.14542 7.31728C0.0987433 7.27061 0.0618293 7.2151 0.0368331 7.15401C0.0118369 7.09291 -0.000741219 7.02745 -0.000167616 6.96144C0.000405988 6.89543 0.0141205 6.8302 0.0401746 6.76954C0.0662288 6.70889 0.104101 6.65404 0.151582 6.60818Z" fill="#F57E1B"/>
</svg>
