<svg width="388" height="388" viewBox="0 0 388 388" fill="none" xmlns="http://www.w3.org/2000/svg">
<g filter="url(#filter0_d_0_1)">
<path d="M193.693 198.586C210.203 198.586 223.586 185.203 223.586 168.693C223.586 152.184 210.203 138.8 193.693 138.8C177.184 138.8 163.8 152.184 163.8 168.693C163.8 185.203 177.184 198.586 193.693 198.586Z" fill="url(#paint0_linear_0_1)"/>
</g>
<path fill-rule="evenodd" clip-rule="evenodd" d="M177.934 177.167V171.687H167.471C167.072 171.687 166.712 171.444 166.559 171.07C166.405 170.697 166.487 170.266 166.767 169.978L192.962 143.007C193.148 142.816 193.401 142.708 193.666 142.708C193.93 142.708 194.184 142.816 194.369 143.007L220.565 169.978C220.845 170.266 220.927 170.697 220.773 171.07C220.619 171.444 220.26 171.687 219.861 171.687H209.397V177.167C208.779 176.895 208.115 176.711 207.421 176.629V170.683C207.421 170.128 207.863 169.679 208.409 169.679H217.498L193.666 145.141L169.834 169.679H178.923C179.468 169.679 179.911 170.128 179.911 170.683V176.629C179.216 176.711 178.553 176.895 177.934 177.167ZM180.734 178.588C183.542 178.588 185.821 180.904 185.821 183.756C185.821 186.608 183.542 188.924 180.734 188.924C177.927 188.924 175.647 186.608 175.647 183.756C175.647 180.904 177.927 178.588 180.734 178.588ZM206.597 178.588C209.405 178.588 211.684 180.904 211.684 183.756C211.684 186.608 209.405 188.924 206.597 188.924C203.79 188.924 201.51 186.608 201.51 183.756C201.51 180.904 203.79 178.588 206.597 178.588ZM216.003 192.758C216.042 192.758 216.082 192.757 216.121 192.757C219.596 192.757 222.498 195.246 223.195 198.564C223.231 198.747 223.185 198.937 223.068 199.081C222.952 199.226 222.778 199.31 222.594 199.31C221.273 199.314 218.592 199.314 218.592 199.314C218.592 199.243 218.589 199.172 218.581 199.101C218.33 196.715 217.405 194.534 216.003 192.758ZM168.739 199.314H164.738C164.553 199.314 164.377 199.23 164.26 199.084C164.143 198.939 164.096 198.747 164.132 198.563C164.833 195.246 167.735 192.757 171.21 192.757C171.25 192.757 171.289 192.758 171.329 192.758C169.927 194.534 169.001 196.715 168.75 199.101C168.743 199.172 168.739 199.243 168.739 199.314ZM216.121 191.502C214.107 191.502 212.466 189.833 212.466 187.787C212.466 185.741 214.107 184.071 216.121 184.071C218.137 184.071 219.779 185.741 219.779 187.787C219.779 189.833 218.137 191.502 216.121 191.502ZM171.21 191.502C169.194 191.502 167.553 189.833 167.553 187.787C167.553 185.741 169.194 184.071 171.21 184.071C173.224 184.071 174.866 185.741 174.866 187.787C174.866 189.833 173.224 191.502 171.21 191.502ZM177.969 199.314H171.425C171.243 199.314 171.07 199.233 170.953 199.092C170.836 198.95 170.786 198.764 170.816 198.582C171.669 193.803 175.785 190.178 180.735 190.178C181.085 190.178 181.43 190.197 181.771 190.232C179.705 192.667 178.337 195.729 177.98 199.1C177.973 199.171 177.969 199.243 177.969 199.314ZM206.013 190.195C206.206 190.184 206.4 190.178 206.596 190.178C211.547 190.178 215.662 193.803 216.513 198.582C216.543 198.763 216.493 198.949 216.376 199.09C216.259 199.23 216.088 199.311 215.907 199.311C214.169 199.314 209.843 199.314 209.843 199.314C209.843 199.243 209.839 199.172 209.831 199.101C209.475 195.713 208.096 192.636 206.013 190.195ZM180.04 198.594C181.107 191.788 186.909 186.586 193.906 186.586C200.907 186.586 206.709 191.788 207.774 198.594C207.801 198.774 207.749 198.958 207.631 199.096C207.514 199.235 207.343 199.314 207.163 199.314C203.284 199.314 184.529 199.314 180.649 199.312C180.47 199.312 180.299 199.233 180.182 199.095C180.065 198.957 180.013 198.774 180.04 198.594ZM193.906 185.331C189.996 185.331 186.81 182.09 186.81 178.118C186.81 174.147 189.996 170.905 193.906 170.905C197.819 170.905 201.006 174.147 201.006 178.118C201.006 182.09 197.819 185.331 193.906 185.331Z" fill="#FFFEF0"/>
<rect x="163.8" y="102.8" width="74.2656" height="30" rx="3" fill="#444444"/>
<rect x="164.3" y="103.3" width="73.2656" height="29" rx="2.5" stroke="white" stroke-opacity="0.0980392"/>
<path d="M175.144 114.8C175.097 114.404 174.907 114.097 174.573 113.878C174.24 113.659 173.831 113.55 173.347 113.55C172.993 113.55 172.683 113.607 172.417 113.722C172.154 113.837 171.948 113.994 171.8 114.195C171.654 114.395 171.581 114.623 171.581 114.878C171.581 115.092 171.632 115.275 171.734 115.429C171.838 115.58 171.971 115.706 172.132 115.808C172.294 115.907 172.463 115.989 172.64 116.054C172.817 116.116 172.98 116.167 173.128 116.206L173.941 116.425C174.149 116.48 174.381 116.555 174.636 116.652C174.894 116.748 175.14 116.879 175.374 117.046C175.611 117.21 175.807 117.421 175.96 117.679C176.114 117.937 176.191 118.253 176.191 118.628C176.191 119.06 176.077 119.451 175.851 119.8C175.627 120.149 175.299 120.426 174.866 120.632C174.437 120.838 173.915 120.941 173.3 120.941C172.727 120.941 172.231 120.848 171.812 120.663C171.395 120.478 171.067 120.221 170.827 119.89C170.59 119.559 170.456 119.175 170.425 118.738H171.425C171.451 119.04 171.553 119.29 171.73 119.488C171.909 119.683 172.136 119.829 172.409 119.925C172.685 120.019 172.982 120.066 173.3 120.066C173.67 120.066 174.002 120.006 174.296 119.886C174.59 119.764 174.823 119.594 174.995 119.378C175.167 119.159 175.253 118.904 175.253 118.613C175.253 118.347 175.179 118.131 175.031 117.964C174.882 117.797 174.687 117.662 174.445 117.558C174.202 117.454 173.941 117.363 173.659 117.284L172.675 117.003C172.05 116.823 171.555 116.567 171.191 116.234C170.826 115.9 170.644 115.464 170.644 114.925C170.644 114.477 170.765 114.087 171.007 113.753C171.252 113.417 171.58 113.157 171.991 112.972C172.406 112.784 172.868 112.691 173.378 112.691C173.894 112.691 174.352 112.783 174.753 112.968C175.154 113.15 175.472 113.4 175.706 113.718C175.943 114.036 176.068 114.396 176.081 114.8H175.144ZM180.174 120.925C179.596 120.925 179.097 120.797 178.678 120.542C178.261 120.284 177.94 119.925 177.713 119.464C177.489 119.001 177.377 118.462 177.377 117.847C177.377 117.232 177.489 116.691 177.713 116.222C177.94 115.751 178.255 115.383 178.658 115.12C179.065 114.855 179.539 114.722 180.08 114.722C180.393 114.722 180.701 114.774 181.006 114.878C181.311 114.982 181.588 115.152 181.838 115.386C182.088 115.618 182.287 115.925 182.436 116.308C182.584 116.691 182.658 117.162 182.658 117.722V118.113H178.033V117.316H181.721C181.721 116.977 181.653 116.675 181.518 116.409C181.385 116.144 181.195 115.934 180.948 115.781C180.703 115.627 180.414 115.55 180.08 115.55C179.713 115.55 179.395 115.641 179.127 115.823C178.862 116.003 178.657 116.238 178.514 116.527C178.371 116.816 178.299 117.126 178.299 117.456V117.988C178.299 118.441 178.377 118.825 178.533 119.14C178.692 119.452 178.912 119.691 179.194 119.855C179.475 120.016 179.802 120.097 180.174 120.097C180.416 120.097 180.635 120.063 180.83 119.995C181.028 119.925 181.199 119.821 181.342 119.683C181.485 119.542 181.596 119.368 181.674 119.159L182.565 119.409C182.471 119.712 182.313 119.977 182.092 120.206C181.871 120.433 181.597 120.61 181.272 120.738C180.946 120.863 180.58 120.925 180.174 120.925ZM186.498 120.925C185.936 120.925 185.451 120.792 185.045 120.527C184.639 120.261 184.326 119.895 184.108 119.429C183.889 118.963 183.78 118.43 183.78 117.831C183.78 117.222 183.892 116.684 184.115 116.218C184.342 115.749 184.657 115.383 185.061 115.12C185.467 114.855 185.941 114.722 186.483 114.722C186.905 114.722 187.285 114.8 187.623 114.956C187.962 115.113 188.239 115.331 188.455 115.613C188.671 115.894 188.806 116.222 188.858 116.597H187.936C187.865 116.323 187.709 116.081 187.467 115.87C187.227 115.657 186.905 115.55 186.498 115.55C186.139 115.55 185.824 115.644 185.553 115.831C185.285 116.016 185.075 116.278 184.924 116.616C184.776 116.952 184.701 117.347 184.701 117.8C184.701 118.264 184.774 118.667 184.92 119.011C185.069 119.355 185.277 119.622 185.545 119.812C185.816 120.002 186.134 120.097 186.498 120.097C186.738 120.097 186.955 120.055 187.151 119.972C187.346 119.889 187.511 119.769 187.647 119.613C187.782 119.456 187.878 119.269 187.936 119.05H188.858C188.806 119.404 188.677 119.723 188.471 120.007C188.268 120.288 187.998 120.512 187.662 120.679C187.329 120.843 186.941 120.925 186.498 120.925ZM192.815 114.8V115.581H189.705V114.8H192.815ZM190.612 113.363H191.533V119.081C191.533 119.342 191.571 119.537 191.647 119.667C191.725 119.795 191.824 119.881 191.944 119.925C192.066 119.967 192.195 119.988 192.33 119.988C192.432 119.988 192.515 119.982 192.58 119.972C192.645 119.959 192.698 119.948 192.737 119.941L192.924 120.769C192.862 120.792 192.774 120.816 192.662 120.839C192.55 120.865 192.408 120.878 192.237 120.878C191.976 120.878 191.721 120.822 191.471 120.71C191.224 120.598 191.018 120.428 190.854 120.198C190.692 119.969 190.612 119.68 190.612 119.331V113.363ZM194.201 120.8V114.8H195.123V120.8H194.201ZM194.67 113.8C194.49 113.8 194.336 113.739 194.205 113.616C194.078 113.494 194.014 113.347 194.014 113.175C194.014 113.003 194.078 112.856 194.205 112.734C194.336 112.611 194.49 112.55 194.67 112.55C194.85 112.55 195.003 112.611 195.131 112.734C195.261 112.856 195.326 113.003 195.326 113.175C195.326 113.347 195.261 113.494 195.131 113.616C195.003 113.739 194.85 113.8 194.67 113.8ZM199.249 120.925C198.708 120.925 198.232 120.796 197.823 120.538C197.417 120.281 197.1 119.92 196.87 119.456C196.644 118.993 196.531 118.451 196.531 117.831C196.531 117.206 196.644 116.661 196.87 116.195C197.1 115.728 197.417 115.366 197.823 115.109C198.232 114.851 198.708 114.722 199.249 114.722C199.791 114.722 200.265 114.851 200.671 115.109C201.08 115.366 201.398 115.728 201.624 116.195C201.853 116.661 201.968 117.206 201.968 117.831C201.968 118.451 201.853 118.993 201.624 119.456C201.398 119.92 201.08 120.281 200.671 120.538C200.265 120.796 199.791 120.925 199.249 120.925ZM199.249 120.097C199.661 120.097 199.999 119.991 200.265 119.781C200.531 119.57 200.727 119.292 200.855 118.948C200.982 118.605 201.046 118.232 201.046 117.831C201.046 117.43 200.982 117.057 200.855 116.71C200.727 116.364 200.531 116.084 200.265 115.87C199.999 115.657 199.661 115.55 199.249 115.55C198.838 115.55 198.499 115.657 198.234 115.87C197.968 116.084 197.771 116.364 197.644 116.71C197.516 117.057 197.452 117.43 197.452 117.831C197.452 118.232 197.516 118.605 197.644 118.948C197.771 119.292 197.968 119.57 198.234 119.781C198.499 119.991 198.838 120.097 199.249 120.097ZM204.297 117.191V120.8H203.375V114.8H204.266V115.738H204.344C204.485 115.433 204.698 115.188 204.985 115.003C205.271 114.816 205.641 114.722 206.094 114.722C206.5 114.722 206.856 114.805 207.16 114.972C207.465 115.136 207.702 115.386 207.871 115.722C208.041 116.055 208.125 116.477 208.125 116.988V120.8H207.203V117.05C207.203 116.579 207.081 116.212 206.836 115.948C206.591 115.683 206.255 115.55 205.828 115.55C205.534 115.55 205.271 115.614 205.039 115.741C204.81 115.869 204.629 116.055 204.496 116.3C204.364 116.545 204.297 116.842 204.297 117.191ZM215.544 120.909C215.216 120.904 214.888 120.842 214.56 120.722C214.232 120.602 213.932 120.4 213.661 120.116C213.391 119.83 213.173 119.443 213.009 118.956C212.845 118.467 212.763 117.852 212.763 117.113C212.763 116.404 212.829 115.777 212.962 115.23C213.095 114.68 213.288 114.218 213.54 113.843C213.793 113.465 214.098 113.179 214.454 112.984C214.814 112.788 215.219 112.691 215.669 112.691C216.117 112.691 216.516 112.781 216.865 112.96C217.216 113.137 217.503 113.385 217.724 113.702C217.945 114.02 218.088 114.386 218.154 114.8H217.2C217.112 114.441 216.94 114.142 216.685 113.906C216.43 113.669 216.091 113.55 215.669 113.55C215.049 113.55 214.561 113.82 214.204 114.359C213.85 114.898 213.672 115.654 213.669 116.628H213.732C213.878 116.407 214.051 116.218 214.251 116.062C214.454 115.903 214.678 115.781 214.923 115.695C215.168 115.609 215.427 115.566 215.7 115.566C216.159 115.566 216.578 115.68 216.958 115.909C217.338 116.136 217.643 116.45 217.872 116.851C218.101 117.249 218.216 117.706 218.216 118.222C218.216 118.717 218.105 119.17 217.884 119.581C217.663 119.99 217.351 120.316 216.95 120.558C216.552 120.797 216.083 120.915 215.544 120.909ZM215.544 120.05C215.872 120.05 216.167 119.968 216.427 119.804C216.69 119.64 216.897 119.42 217.048 119.144C217.202 118.868 217.279 118.56 217.279 118.222C217.279 117.891 217.204 117.59 217.056 117.32C216.91 117.046 216.708 116.829 216.45 116.667C216.195 116.506 215.904 116.425 215.575 116.425C215.328 116.425 215.098 116.475 214.884 116.573C214.67 116.67 214.483 116.803 214.322 116.972C214.163 117.141 214.038 117.335 213.947 117.554C213.855 117.77 213.81 117.998 213.81 118.238C213.81 118.555 213.884 118.852 214.032 119.128C214.184 119.404 214.389 119.627 214.65 119.796C214.913 119.965 215.211 120.05 215.544 120.05ZM222.408 120.909C222.08 120.904 221.752 120.842 221.424 120.722C221.096 120.602 220.796 120.4 220.526 120.116C220.255 119.83 220.037 119.443 219.873 118.956C219.709 118.467 219.627 117.852 219.627 117.113C219.627 116.404 219.694 115.777 219.826 115.23C219.959 114.68 220.152 114.218 220.405 113.843C220.657 113.465 220.962 113.179 221.319 112.984C221.678 112.788 222.083 112.691 222.533 112.691C222.981 112.691 223.38 112.781 223.729 112.96C224.08 113.137 224.367 113.385 224.588 113.702C224.809 114.02 224.953 114.386 225.018 114.8H224.065C223.976 114.441 223.804 114.142 223.549 113.906C223.294 113.669 222.955 113.55 222.533 113.55C221.914 113.55 221.425 113.82 221.069 114.359C220.714 114.898 220.536 115.654 220.533 116.628H220.596C220.742 116.407 220.915 116.218 221.115 116.062C221.319 115.903 221.543 115.781 221.787 115.695C222.032 115.609 222.291 115.566 222.565 115.566C223.023 115.566 223.442 115.68 223.823 115.909C224.203 116.136 224.507 116.45 224.737 116.851C224.966 117.249 225.08 117.706 225.08 118.222C225.08 118.717 224.97 119.17 224.748 119.581C224.527 119.99 224.216 120.316 223.815 120.558C223.416 120.797 222.948 120.915 222.408 120.909ZM222.408 120.05C222.737 120.05 223.031 119.968 223.291 119.804C223.554 119.64 223.761 119.42 223.912 119.144C224.066 118.868 224.143 118.56 224.143 118.222C224.143 117.891 224.069 117.59 223.92 117.32C223.774 117.046 223.573 116.829 223.315 116.667C223.059 116.506 222.768 116.425 222.44 116.425C222.192 116.425 221.962 116.475 221.748 116.573C221.535 116.67 221.347 116.803 221.186 116.972C221.027 117.141 220.902 117.335 220.811 117.554C220.72 117.77 220.674 117.998 220.674 118.238C220.674 118.555 220.748 118.852 220.897 119.128C221.048 119.404 221.253 119.627 221.514 119.796C221.777 119.965 222.075 120.05 222.408 120.05ZM226.866 120.8L230.445 113.722V113.659H226.32V112.8H231.445V113.706L227.882 120.8H226.866Z" fill="white"/>
<defs>
<filter id="filter0_d_0_1" x="40" y="40" width="307.386" height="307.386" filterUnits="userSpaceOnUse" color-interpolation-filters="sRGB">
<feFlood flood-opacity="0" result="BackgroundImageFix"/>
<feColorMatrix in="SourceAlpha" type="matrix" values="0 0 0 0 0 0 0 0 0 0 0 0 0 0 0 0 0 0 127 0" result="hardAlpha"/>
<feOffset dy="25"/>
<feGaussianBlur stdDeviation="61.9"/>
<feComposite in2="hardAlpha" operator="out"/>
<feColorMatrix type="matrix" values="0 0 0 0 0 0 0 0 0 0 0 0 0 0 0 0 0 0 0.05 0"/>
<feBlend mode="normal" in2="BackgroundImageFix" result="effect1_dropShadow_0_1"/>
<feBlend mode="normal" in="SourceGraphic" in2="effect1_dropShadow_0_1" result="shape"/>
</filter>
<linearGradient id="paint0_linear_0_1" x1="163.8" y1="168.693" x2="209.734" y2="168.693" gradientUnits="userSpaceOnUse">
<stop stop-color="#F57C1B"/>
<stop offset="1" stop-color="#F8C522"/>
</linearGradient>
</defs>
</svg>
