<svg width="57" height="51" viewBox="0 0 57 51" fill="none" xmlns="http://www.w3.org/2000/svg">
<path d="M42.4062 47.4375C46.2992 47.4397 50.0857 46.1674 53.1875 43.815V45.2812C53.18 46.6133 52.6475 47.8886 51.7055 48.8305C50.7636 49.7725 49.4883 50.305 48.1562 50.3125H7.90625C5.80938 50.3125 3.7984 49.4795 2.31569 47.9968C0.832978 46.5141 0 44.5031 0 42.4062V7.90625C0 5.80938 0.832978 3.7984 2.31569 2.31569C3.7984 0.832977 5.80938 0 7.90625 0H33.7812C34.9868 0.00233436 36.1509 0.439938 37.0595 1.2323C37.9681 2.02466 38.56 3.11848 38.7262 4.3125H16.5312C15.9594 4.3125 15.4109 4.53968 15.0066 4.94405C14.6022 5.34843 14.375 5.89688 14.375 6.46875C14.375 7.04062 14.6022 7.58907 15.0066 7.99345C15.4109 8.39782 15.9594 8.625 16.5312 8.625H48.1562C49.4883 8.63255 50.7636 9.16505 51.7055 10.107C52.6475 11.0489 53.18 12.3242 53.1875 13.6562V15.1225C50.9114 13.406 48.2595 12.2556 45.451 11.7665C42.6425 11.2774 39.7578 11.4635 37.0355 12.3096C34.3131 13.1556 31.8311 14.6372 29.7945 16.6321C27.7579 18.6269 26.2252 21.0777 25.3229 23.782C24.4207 26.4863 24.1749 29.3664 24.6057 32.1845C25.0366 35.0026 26.1318 37.6777 27.8008 39.9888C29.4699 42.3 31.6649 44.1808 34.2045 45.476C36.7441 46.7712 39.5554 47.4436 42.4062 47.4375ZM56.0625 29.4688C56.0625 32.1697 55.2616 34.81 53.761 37.0558C52.2604 39.3015 50.1276 41.0519 47.6323 42.0855C45.1369 43.1191 42.3911 43.3895 39.742 42.8626C37.093 42.3357 34.6597 41.035 32.7498 39.1252C30.84 37.2153 29.5393 34.782 29.0124 32.1329C28.4855 29.4839 28.7559 26.7381 29.7895 24.2427C30.8231 21.7474 32.5735 19.6146 34.8192 18.114C37.065 16.6134 39.7053 15.8125 42.4062 15.8125C46.0281 15.8125 49.5016 17.2513 52.0627 19.8123C54.6237 22.3734 56.0625 25.8469 56.0625 29.4688ZM50.14 28.635C50.0309 28.3784 49.8749 28.1444 49.68 27.945L43.93 22.195C43.5189 21.8964 43.0156 21.7525 42.5089 21.7887C42.0021 21.8249 41.5244 22.039 41.16 22.3931C40.7956 22.7471 40.5679 23.2185 40.5172 23.724C40.4664 24.2296 40.5958 24.7368 40.8825 25.1562L42.9525 27.2263H36.6562C36.0844 27.2263 35.5359 27.4534 35.1316 27.8578C34.7272 28.2622 34.5 28.8106 34.5 29.3825C34.5 29.9544 34.7272 30.5028 35.1316 30.9072C35.5359 31.3116 36.0844 31.5388 36.6562 31.5388H42.9525L40.8825 33.6087C40.4787 34.013 40.2519 34.5611 40.2519 35.1325C40.2519 35.7039 40.4787 36.252 40.8825 36.6562C41.2868 37.06 41.8348 37.2868 42.4062 37.2868C42.9777 37.2868 43.5257 37.06 43.93 36.6562L49.68 30.9062C49.8749 30.7068 50.0309 30.4728 50.14 30.2163C50.3462 29.7093 50.3462 29.1419 50.14 28.635Z" fill="#06833D"/>
</svg>
