<svg width="58" height="52" viewBox="0 0 58 52" fill="none" xmlns="http://www.w3.org/2000/svg">
<path d="M28.6667 9.1875C31.244 9.1875 33.3333 7.13081 33.3333 4.59375C33.3333 2.05669 31.244 0 28.6667 0C26.0893 0 24 2.05669 24 4.59375C24 7.13081 26.0893 9.1875 28.6667 9.1875Z" fill="#06833D"/>
<path d="M52.6667 17.0625C55.244 17.0625 57.3333 15.0058 57.3333 12.4688C57.3333 9.93169 55.244 7.875 52.6667 7.875C50.0893 7.875 48 9.93169 48 12.4688C48 15.0058 50.0893 17.0625 52.6667 17.0625Z" fill="#06833D"/>
<path d="M4.66667 17.0625C7.244 17.0625 9.33333 15.0058 9.33333 12.4688C9.33333 9.93169 7.244 7.875 4.66667 7.875C2.08934 7.875 0 9.93169 0 12.4688C0 15.0058 2.08934 17.0625 4.66667 17.0625Z" fill="#06833D"/>
<path fill-rule="evenodd" clip-rule="evenodd" d="M53.2933 15.4796C53.464 14.6449 53.0693 13.7996 52.32 13.3796C51.568 12.9623 50.6267 13.0646 49.9867 13.6369C49.9867 13.6369 47.1973 16.1332 44.0507 18.9499C42.5787 20.2676 40.5387 20.7795 38.6053 20.3201C36.672 19.8608 35.096 18.4879 34.3973 16.653L30.5387 6.52837C30.2453 5.75925 29.5013 5.25 28.6667 5.25C27.832 5.25 27.088 5.75925 26.7947 6.52837L22.936 16.653C22.2373 18.4879 20.6613 19.8608 18.728 20.3201C16.7947 20.7795 14.7547 20.2676 13.2827 18.9499C10.136 16.1332 7.34668 13.6369 7.34668 13.6369C6.70668 13.0646 5.76534 12.9623 5.01334 13.3796C4.26401 13.7996 3.86934 14.6449 4.04001 15.4796C4.04001 15.4796 7.00801 30.0877 8.51468 37.5086C9.20001 40.8844 12.2107 43.3125 15.7067 43.3125H41.6267C45.1227 43.3125 48.1333 40.8844 48.8187 37.5086C50.3253 30.0877 53.2933 15.4796 53.2933 15.4796Z" fill="#06833D"/>
<path fill-rule="evenodd" clip-rule="evenodd" d="M44.6667 47.25H12.6667C11.5627 47.25 10.6667 48.132 10.6667 49.2188C10.6667 50.3055 11.5627 51.1875 12.6667 51.1875H44.6667C45.7707 51.1875 46.6667 50.3055 46.6667 49.2188C46.6667 48.132 45.7707 47.25 44.6667 47.25Z" fill="#06833D"/>
</svg>
