<svg width="308" height="308" viewBox="0 0 308 308" fill="none" xmlns="http://www.w3.org/2000/svg">
<g filter="url(#filter0_d_2038_1712)">
<path d="M153.693 158.586C170.203 158.586 183.586 145.203 183.586 128.693C183.586 112.184 170.203 98.8 153.693 98.8C137.184 98.8 123.8 112.184 123.8 128.693C123.8 145.203 137.184 158.586 153.693 158.586Z" fill="url(#paint0_linear_2038_1712)"/>
</g>
<mask id="mask0_2038_1712" style="mask-type:luminance" maskUnits="userSpaceOnUse" x="128" y="112" width="52" height="53">
<path d="M179.104 112.011H128.104V164.011H179.104V112.011Z" fill="white"/>
</mask>
<g mask="url(#mask0_2038_1712)">
<path d="M162.797 138.011C162.797 136.317 162.737 134.681 162.626 133.108C160.802 132.752 159.325 131.386 158.78 129.605H144.926C144.596 132.2 144.41 135.016 144.41 138.011C144.41 139.848 144.48 141.618 144.611 143.311C146.421 143.677 147.885 145.037 148.427 146.809H162.23C162.592 144.107 162.797 141.157 162.797 138.011Z" fill="#FFFEF0"/>
<path d="M164.104 122.991C166.118 123.208 167.781 124.643 168.368 126.558H176.492C173.219 119.786 167.14 114.668 159.811 112.792C160.822 114.175 161.745 115.914 162.55 117.988C163.146 119.524 163.666 121.202 164.104 122.991Z" fill="#FFFEF0"/>
<path d="M141.64 143.635C141.496 141.802 141.422 139.92 141.422 138.011C141.422 135.121 141.591 132.295 141.917 129.605H129.472C128.586 132.243 128.104 135.071 128.104 138.011C128.104 141.098 128.635 144.06 129.608 146.809H138.839C139.276 145.383 140.309 144.224 141.64 143.635Z" fill="#FFFEF0"/>
<path d="M143.204 153.432C141.145 153.253 139.436 151.803 138.839 149.856H130.907C134.222 156.434 140.209 161.391 147.396 163.231C146.385 161.848 145.462 160.108 144.657 158.034C144.105 156.614 143.62 155.071 143.204 153.432Z" fill="#FFFEF0"/>
<path d="M145.397 126.558H158.78C159.171 125.282 160.04 124.219 161.172 123.587C159.383 116.4 156.391 112.011 153.603 112.011C150.45 112.011 147.036 117.628 145.397 126.558Z" fill="#FFFEF0"/>
<path d="M139.511 117.369C139.511 120.191 137.259 122.488 134.49 122.488C134.071 122.488 133.663 122.435 133.273 122.335C132.295 123.651 131.437 125.064 130.715 126.558H142.362C142.906 123.41 143.679 120.508 144.657 117.988C145.462 115.915 146.384 114.175 147.396 112.792C144.514 113.53 141.824 114.768 139.422 116.413C139.48 116.723 139.511 117.042 139.511 117.369Z" fill="#FFFEF0"/>
<path d="M167.696 158.654C167.696 155.831 169.948 153.534 172.717 153.534C173.136 153.534 173.544 153.588 173.934 153.687C174.826 152.487 175.62 151.206 176.3 149.856H164.775C164.235 152.853 163.488 155.62 162.55 158.034C161.745 160.108 160.822 161.848 159.811 163.231C162.693 162.493 165.383 161.254 167.785 159.609C167.727 159.299 167.696 158.98 167.696 158.654Z" fill="#FFFEF0"/>
<path d="M161.736 149.856H148.427C148.047 151.099 147.212 152.139 146.123 152.776C147.92 159.76 150.86 164.011 153.604 164.011C156.711 164.011 160.071 158.558 161.736 149.856Z" fill="#FFFEF0"/>
<path d="M177.599 146.809C178.572 144.06 179.103 141.098 179.103 138.011C179.103 135.071 178.621 132.243 177.735 129.605H168.368C167.934 131.021 166.912 132.173 165.595 132.766C165.72 134.479 165.785 136.233 165.785 138.011C165.785 141.041 165.599 144.002 165.242 146.809H177.599Z" fill="#FFFEF0"/>
<path d="M163.574 130.154C164.695 130.154 165.606 129.225 165.606 128.082C165.606 126.939 164.695 126.009 163.574 126.009C162.453 126.009 161.541 126.939 161.541 128.082C161.541 129.225 162.453 130.154 163.574 130.154Z" fill="#FFFEF0"/>
<path d="M143.633 150.405C144.756 150.405 145.666 149.477 145.666 148.332C145.666 147.188 144.756 146.26 143.633 146.26C142.511 146.26 141.601 147.188 141.601 148.332C141.601 149.477 142.511 150.405 143.633 150.405Z" fill="#FFFEF0"/>
<path d="M134.49 119.441C135.613 119.441 136.523 118.513 136.523 117.369C136.523 116.224 135.613 115.296 134.49 115.296C133.368 115.296 132.458 116.224 132.458 117.369C132.458 118.513 133.368 119.441 134.49 119.441Z" fill="#FFFEF0"/>
<path d="M172.717 156.581C171.596 156.581 170.684 157.511 170.684 158.654C170.684 159.797 171.596 160.726 172.717 160.726C173.838 160.726 174.749 159.797 174.749 158.654C174.749 157.511 173.838 156.581 172.717 156.581Z" fill="#FFFEF0"/>
</g>
<defs>
<filter id="filter0_d_2038_1712" x="4.57764e-05" y="4.57764e-05" width="307.386" height="307.386" filterUnits="userSpaceOnUse" color-interpolation-filters="sRGB">
<feFlood flood-opacity="0" result="BackgroundImageFix"/>
<feColorMatrix in="SourceAlpha" type="matrix" values="0 0 0 0 0 0 0 0 0 0 0 0 0 0 0 0 0 0 127 0" result="hardAlpha"/>
<feOffset dy="25"/>
<feGaussianBlur stdDeviation="61.9"/>
<feComposite in2="hardAlpha" operator="out"/>
<feColorMatrix type="matrix" values="0 0 0 0 0 0 0 0 0 0 0 0 0 0 0 0 0 0 0.05 0"/>
<feBlend mode="normal" in2="BackgroundImageFix" result="effect1_dropShadow_2038_1712"/>
<feBlend mode="normal" in="SourceGraphic" in2="effect1_dropShadow_2038_1712" result="shape"/>
</filter>
<linearGradient id="paint0_linear_2038_1712" x1="123.8" y1="128.693" x2="169.734" y2="128.693" gradientUnits="userSpaceOnUse">
<stop stop-color="#F57C1B"/>
<stop offset="1" stop-color="#F8C522"/>
</linearGradient>
</defs>
</svg>
