<svg width="289" height="289" viewBox="0 0 289 289" fill="none" xmlns="http://www.w3.org/2000/svg">
<g filter="url(#filter0_d_24_67)">
<path d="M144.09 139.379C155.295 139.379 164.379 130.295 164.379 119.09C164.379 107.884 155.295 98.8 144.09 98.8C132.884 98.8 123.8 107.884 123.8 119.09C123.8 130.295 132.884 139.379 144.09 139.379Z" fill="url(#paint0_linear_24_67)"/>
</g>
<path fill-rule="evenodd" clip-rule="evenodd" d="M133.535 125.548V121.827H126.48C126.212 121.827 125.969 121.662 125.866 121.408C125.762 121.154 125.817 120.862 126.006 120.666L143.668 102.35C143.793 102.22 143.964 102.147 144.142 102.147C144.32 102.147 144.491 102.22 144.616 102.35L162.278 120.666C162.467 120.862 162.522 121.154 162.418 121.408C162.315 121.662 162.072 121.827 161.804 121.827H154.748V125.548C154.332 125.364 153.884 125.239 153.416 125.183V121.145C153.416 120.768 153.714 120.463 154.082 120.463H160.21L144.142 103.799L128.074 120.463H134.202C134.57 120.463 134.868 120.768 134.868 121.145V125.183C134.4 125.239 133.952 125.364 133.535 125.548ZM135.423 126.514C137.316 126.514 138.853 128.086 138.853 130.023C138.853 131.96 137.316 133.533 135.423 133.533C133.53 133.533 131.993 131.96 131.993 130.023C131.993 128.086 133.53 126.514 135.423 126.514ZM152.861 126.514C154.754 126.514 156.291 128.086 156.291 130.023C156.291 131.96 154.754 133.533 152.861 133.533C150.968 133.533 149.431 131.96 149.431 130.023C149.431 128.086 150.968 126.514 152.861 126.514ZM159.202 136.137C159.229 136.136 159.255 136.136 159.282 136.136C161.625 136.136 163.582 137.826 164.051 140.08C164.076 140.204 164.044 140.333 163.966 140.431C163.887 140.529 163.77 140.586 163.646 140.586C162.755 140.589 160.948 140.589 160.948 140.589C160.948 140.541 160.946 140.493 160.941 140.444C160.771 138.824 160.148 137.343 159.202 136.137ZM127.336 140.589H124.638C124.513 140.589 124.395 140.532 124.316 140.433C124.237 140.334 124.205 140.204 124.23 140.079C124.702 137.826 126.659 136.136 129.002 136.136C129.029 136.136 129.055 136.136 129.082 136.137C128.136 137.343 127.513 138.824 127.343 140.444C127.338 140.493 127.336 140.541 127.336 140.589ZM159.282 135.284C157.924 135.284 156.817 134.15 156.817 132.761C156.817 131.371 157.924 130.237 159.282 130.237C160.641 130.237 161.748 131.371 161.748 132.761C161.748 134.15 160.641 135.284 159.282 135.284ZM129.002 135.284C127.643 135.284 126.536 134.15 126.536 132.761C126.536 131.371 127.643 130.237 129.002 130.237C130.36 130.237 131.467 131.371 131.467 132.761C131.467 134.15 130.36 135.284 129.002 135.284ZM133.559 140.589H129.147C129.024 140.589 128.908 140.534 128.828 140.438C128.749 140.342 128.716 140.216 128.736 140.092C129.311 136.847 132.086 134.385 135.424 134.385C135.66 134.385 135.893 134.397 136.122 134.421C134.729 136.075 133.807 138.155 133.566 140.444C133.561 140.492 133.559 140.541 133.559 140.589ZM152.467 134.396C152.597 134.389 152.728 134.385 152.86 134.385C156.198 134.385 158.973 136.847 159.546 140.092C159.566 140.215 159.533 140.341 159.454 140.437C159.375 140.532 159.259 140.587 159.137 140.587C157.966 140.589 155.049 140.589 155.049 140.589C155.049 140.541 155.046 140.493 155.041 140.444C154.801 138.144 153.871 136.054 152.467 134.396ZM134.955 140.1C135.674 135.478 139.586 131.945 144.304 131.945C149.024 131.945 152.936 135.478 153.654 140.1C153.672 140.223 153.637 140.347 153.558 140.441C153.479 140.535 153.363 140.589 153.242 140.589C150.627 140.589 137.982 140.589 135.366 140.588C135.245 140.588 135.13 140.534 135.051 140.44C134.972 140.347 134.937 140.222 134.955 140.1ZM144.304 131.093C141.668 131.093 139.519 128.892 139.519 126.194C139.519 123.497 141.668 121.296 144.304 121.296C146.942 121.296 149.091 123.497 149.091 126.194C149.091 128.892 146.942 131.093 144.304 131.093Z" fill="#FFFEF0"/>
<defs>
<filter id="filter0_d_24_67" x="4.57764e-05" y="4.57764e-05" width="288.179" height="288.179" filterUnits="userSpaceOnUse" color-interpolation-filters="sRGB">
<feFlood flood-opacity="0" result="BackgroundImageFix"/>
<feColorMatrix in="SourceAlpha" type="matrix" values="0 0 0 0 0 0 0 0 0 0 0 0 0 0 0 0 0 0 127 0" result="hardAlpha"/>
<feOffset dy="25"/>
<feGaussianBlur stdDeviation="61.9"/>
<feComposite in2="hardAlpha" operator="out"/>
<feColorMatrix type="matrix" values="0 0 0 0 0 0 0 0 0 0 0 0 0 0 0 0 0 0 0.05 0"/>
<feBlend mode="normal" in2="BackgroundImageFix" result="effect1_dropShadow_24_67"/>
<feBlend mode="normal" in="SourceGraphic" in2="effect1_dropShadow_24_67" result="shape"/>
</filter>
<linearGradient id="paint0_linear_24_67" x1="123.8" y1="119.09" x2="154.977" y2="119.09" gradientUnits="userSpaceOnUse">
<stop stop-color="#F57C1B"/>
<stop offset="1" stop-color="#F8C522"/>
</linearGradient>
</defs>
</svg>
