<svg width="289" height="289" viewBox="0 0 289 289" fill="none" xmlns="http://www.w3.org/2000/svg">
<g filter="url(#filter0_d_1_147)">
<circle cx="144.09" cy="119.09" r="20.2897" fill="url(#paint0_linear_1_147)"/>
</g>
<g clip-path="url(#clip0_1_147)">
<path d="M150.269 125.414C150.269 124.265 150.229 123.154 150.153 122.087C148.915 121.845 147.913 120.918 147.543 119.709H138.14C137.915 121.47 137.789 123.382 137.789 125.414C137.789 126.661 137.837 127.862 137.925 129.012C139.154 129.26 140.147 130.183 140.516 131.386H149.884C150.13 129.552 150.269 127.55 150.269 125.414Z" fill="#FFFEF0"/>
<path d="M151.155 115.22C152.523 115.366 153.651 116.341 154.05 117.641H159.564C157.342 113.044 153.216 109.57 148.241 108.297C148.928 109.236 149.554 110.416 150.101 111.824C150.506 112.866 150.858 114.005 151.155 115.22Z" fill="#FFFEF0"/>
<path d="M135.908 129.231C135.811 127.987 135.761 126.71 135.761 125.414C135.761 123.453 135.876 121.535 136.097 119.709H127.65C127.048 121.499 126.721 123.419 126.721 125.414C126.721 127.509 127.082 129.52 127.742 131.386H134.008C134.304 130.418 135.006 129.631 135.908 129.231Z" fill="#FFFEF0"/>
<path d="M136.97 135.881C135.572 135.76 134.412 134.776 134.007 133.454H128.623C130.874 137.919 134.937 141.283 139.815 142.532C139.129 141.593 138.503 140.412 137.956 139.005C137.582 138.041 137.252 136.994 136.97 135.881Z" fill="#FFFEF0"/>
<path d="M138.459 117.641H147.542C147.808 116.775 148.397 116.053 149.166 115.624C147.952 110.746 145.921 107.767 144.029 107.767C141.888 107.767 139.571 111.579 138.459 117.641Z" fill="#FFFEF0"/>
<path d="M134.464 111.403C134.464 113.319 132.935 114.878 131.056 114.878C130.771 114.878 130.495 114.842 130.23 114.774C129.566 115.668 128.983 116.627 128.493 117.641H136.399C136.768 115.504 137.292 113.534 137.956 111.824C138.503 110.416 139.129 109.236 139.816 108.297C137.859 108.798 136.034 109.639 134.404 110.755C134.443 110.965 134.464 111.182 134.464 111.403Z" fill="#FFFEF0"/>
<path d="M153.593 139.425C153.593 137.509 155.122 135.951 157.001 135.951C157.286 135.951 157.563 135.987 157.827 136.054C158.433 135.239 158.972 134.37 159.434 133.454H151.611C151.245 135.488 150.737 137.366 150.101 139.005C149.554 140.412 148.928 141.593 148.241 142.532C150.198 142.031 152.024 141.19 153.654 140.074C153.615 139.864 153.593 139.647 153.593 139.425Z" fill="#FFFEF0"/>
<path d="M149.549 133.454H140.516C140.257 134.298 139.691 135.003 138.951 135.436C140.171 140.176 142.167 143.062 144.029 143.062C146.138 143.062 148.419 139.361 149.549 133.454Z" fill="#FFFEF0"/>
<path d="M160.316 131.386C160.976 129.52 161.337 127.509 161.337 125.414C161.337 123.419 161.01 121.499 160.408 119.709H154.05C153.756 120.67 153.062 121.452 152.168 121.854C152.253 123.017 152.297 124.207 152.297 125.414C152.297 127.471 152.171 129.481 151.928 131.386H160.316Z" fill="#FFFEF0"/>
<path d="M150.796 120.081C151.557 120.081 152.176 119.45 152.176 118.675C152.176 117.899 151.557 117.268 150.796 117.268C150.035 117.268 149.416 117.899 149.416 118.675C149.416 119.45 150.035 120.081 150.796 120.081Z" fill="#FFFEF0"/>
<path d="M137.262 133.827C138.024 133.827 138.641 133.197 138.641 132.42C138.641 131.643 138.024 131.013 137.262 131.013C136.5 131.013 135.882 131.643 135.882 132.42C135.882 133.197 136.5 133.827 137.262 133.827Z" fill="#FFFEF0"/>
<path d="M131.056 112.81C131.818 112.81 132.435 112.18 132.435 111.403C132.435 110.627 131.818 109.997 131.056 109.997C130.294 109.997 129.676 110.627 129.676 111.403C129.676 112.18 130.294 112.81 131.056 112.81Z" fill="#FFFEF0"/>
<path d="M157.002 138.019C156.241 138.019 155.622 138.65 155.622 139.425C155.622 140.201 156.241 140.832 157.002 140.832C157.763 140.832 158.382 140.201 158.382 139.425C158.382 138.65 157.763 138.019 157.002 138.019Z" fill="#FFFEF0"/>
</g>
<defs>
<filter id="filter0_d_1_147" x="-1.52588e-05" y="4.57764e-05" width="288.179" height="288.179" filterUnits="userSpaceOnUse" color-interpolation-filters="sRGB">
<feFlood flood-opacity="0" result="BackgroundImageFix"/>
<feColorMatrix in="SourceAlpha" type="matrix" values="0 0 0 0 0 0 0 0 0 0 0 0 0 0 0 0 0 0 127 0" result="hardAlpha"/>
<feOffset dy="25"/>
<feGaussianBlur stdDeviation="61.9"/>
<feComposite in2="hardAlpha" operator="out"/>
<feColorMatrix type="matrix" values="0 0 0 0 0 0 0 0 0 0 0 0 0 0 0 0 0 0 0.05 0"/>
<feBlend mode="normal" in2="BackgroundImageFix" result="effect1_dropShadow_1_147"/>
<feBlend mode="normal" in="SourceGraphic" in2="effect1_dropShadow_1_147" result="shape"/>
</filter>
<linearGradient id="paint0_linear_1_147" x1="123.8" y1="119.09" x2="154.977" y2="119.09" gradientUnits="userSpaceOnUse">
<stop stop-color="#F57C1B"/>
<stop offset="1" stop-color="#F8C522"/>
</linearGradient>
<clipPath id="clip0_1_147">
<rect width="34.6158" height="35.2945" fill="white" transform="translate(126.721 107.767)"/>
</clipPath>
</defs>
</svg>
