<svg width="289" height="289" viewBox="0 0 289 289" fill="none" xmlns="http://www.w3.org/2000/svg">
<g filter="url(#filter0_d_1_168)">
<circle cx="144.09" cy="119.09" r="20.2897" fill="url(#paint0_linear_1_168)"/>
</g>
<g clip-path="url(#clip0_1_168)">
<path d="M155.67 119.528C158.434 119.528 160.675 117.287 160.675 114.522C160.675 111.758 158.434 109.516 155.67 109.516C152.905 109.516 150.664 111.758 150.664 114.522C150.664 117.287 152.905 119.528 155.67 119.528Z" fill="#FFFEF0"/>
<path d="M132.31 119.528C135.074 119.528 137.316 117.287 137.316 114.522C137.316 111.758 135.074 109.516 132.31 109.516C129.545 109.516 127.304 111.758 127.304 114.522C127.304 117.287 129.545 119.528 132.31 119.528Z" fill="#FFFEF0"/>
<path d="M143.99 116.191C147.676 116.191 150.664 113.203 150.664 109.516C150.664 105.83 147.676 102.842 143.99 102.842C140.304 102.842 137.315 105.83 137.315 109.516C137.315 113.203 140.304 116.191 143.99 116.191Z" fill="#FFFEF0"/>
<path d="M160.675 121.196H154.773C155.361 122.21 155.671 123.361 155.669 124.534V136.214H162.344C162.786 136.214 163.211 136.038 163.524 135.725C163.837 135.412 164.012 134.988 164.012 134.545V124.534C164.012 123.648 163.661 122.8 163.035 122.174C162.409 121.548 161.56 121.196 160.675 121.196Z" fill="#FFFEF0"/>
<path d="M133.208 121.197H127.304C126.419 121.197 125.57 121.548 124.944 122.174C124.319 122.8 123.967 123.649 123.967 124.534V134.545C123.967 134.988 124.143 135.412 124.456 135.725C124.769 136.038 125.193 136.214 125.635 136.214H132.31V124.534C132.309 123.361 132.619 122.21 133.208 121.197Z" fill="#FFFEF0"/>
<path d="M148.996 117.859H147.327L143.99 127.871L140.653 117.859H138.984C137.657 117.859 136.384 118.387 135.445 119.325C134.506 120.264 133.979 121.537 133.979 122.865V137.882C133.979 138.325 134.154 138.749 134.467 139.062C134.78 139.375 135.205 139.551 135.647 139.551H152.333C152.775 139.551 153.2 139.375 153.513 139.062C153.826 138.749 154.001 138.325 154.001 137.882V122.865C154.001 121.537 153.474 120.264 152.535 119.325C151.597 118.387 150.323 117.859 148.996 117.859Z" fill="#FFFEF0"/>
</g>
<defs>
<filter id="filter0_d_1_168" x="-1.52588e-05" y="4.57764e-05" width="288.179" height="288.179" filterUnits="userSpaceOnUse" color-interpolation-filters="sRGB">
<feFlood flood-opacity="0" result="BackgroundImageFix"/>
<feColorMatrix in="SourceAlpha" type="matrix" values="0 0 0 0 0 0 0 0 0 0 0 0 0 0 0 0 0 0 127 0" result="hardAlpha"/>
<feOffset dy="25"/>
<feGaussianBlur stdDeviation="61.9"/>
<feComposite in2="hardAlpha" operator="out"/>
<feColorMatrix type="matrix" values="0 0 0 0 0 0 0 0 0 0 0 0 0 0 0 0 0 0 0.05 0"/>
<feBlend mode="normal" in2="BackgroundImageFix" result="effect1_dropShadow_1_168"/>
<feBlend mode="normal" in="SourceGraphic" in2="effect1_dropShadow_1_168" result="shape"/>
</filter>
<linearGradient id="paint0_linear_1_168" x1="123.8" y1="119.09" x2="154.977" y2="119.09" gradientUnits="userSpaceOnUse">
<stop stop-color="#F57C1B"/>
<stop offset="1" stop-color="#F8C522"/>
</linearGradient>
<clipPath id="clip0_1_168">
<rect width="40.0457" height="40.0457" fill="white" transform="translate(123.967 99.505)"/>
</clipPath>
</defs>
</svg>
