<svg width="289" height="288" viewBox="0 0 289 288" fill="none" xmlns="http://www.w3.org/2000/svg">
<g filter="url(#filter0_d_22_2)">
<ellipse cx="144.3" cy="118.8" rx="20.5" ry="20" fill="url(#paint0_linear_22_2)"/>
</g>
<g clip-path="url(#clip0_22_2)">
<path d="M150.769 121.915L143.133 119.649C141.807 119.185 140.906 118.103 140.747 116.815C140.428 114.549 142.391 112.591 144.777 112.849C146.633 113.055 147.959 114.497 147.959 116.352C147.959 117.742 149.125 118.876 150.557 118.876C151.989 118.876 153.156 117.794 153.156 116.403C153.156 111.715 149.284 107.8 144.3 107.8C139.527 107.8 135.444 111.818 135.444 116.609V137.473C135.444 139.276 136.981 140.77 138.837 140.77H149.762C151.618 140.77 153.156 139.276 153.156 137.473V125.006C153.156 123.564 152.201 122.327 150.769 121.915ZM148.86 131.136L143.875 135.979C143.451 136.442 142.709 136.442 142.231 135.979L139.739 133.558C139.315 133.146 139.315 132.527 139.739 132.115C139.951 131.909 140.216 131.806 140.481 131.806C140.747 131.806 141.012 131.909 141.224 132.115L143.027 133.867L147.375 129.642C147.8 129.23 148.489 129.23 148.86 129.642C149.072 129.849 149.178 130.106 149.178 130.364C149.178 130.621 149.072 130.93 148.86 131.136Z" fill="#FFFEF0"/>
</g>
<defs>
<filter id="filter0_d_22_2" x="-1.52588e-05" y="4.57764e-05" width="288.6" height="287.6" filterUnits="userSpaceOnUse" color-interpolation-filters="sRGB">
<feFlood flood-opacity="0" result="BackgroundImageFix"/>
<feColorMatrix in="SourceAlpha" type="matrix" values="0 0 0 0 0 0 0 0 0 0 0 0 0 0 0 0 0 0 127 0" result="hardAlpha"/>
<feOffset dy="25"/>
<feGaussianBlur stdDeviation="61.9"/>
<feComposite in2="hardAlpha" operator="out"/>
<feColorMatrix type="matrix" values="0 0 0 0 0 0 0 0 0 0 0 0 0 0 0 0 0 0 0.05 0"/>
<feBlend mode="normal" in2="BackgroundImageFix" result="effect1_dropShadow_22_2"/>
<feBlend mode="normal" in="SourceGraphic" in2="effect1_dropShadow_22_2" result="shape"/>
</filter>
<linearGradient id="paint0_linear_22_2" x1="123.8" y1="118.8" x2="155.3" y2="118.8" gradientUnits="userSpaceOnUse">
<stop stop-color="#F57C1B"/>
<stop offset="1" stop-color="#F8C522"/>
</linearGradient>
<clipPath id="clip0_22_2">
<rect width="35" height="34" fill="white" transform="translate(126.8 107.8)"/>
</clipPath>
</defs>
</svg>
