<svg width="289" height="288" viewBox="0 0 289 288" fill="none" xmlns="http://www.w3.org/2000/svg">
<g filter="url(#filter0_d_22_3)">
<ellipse cx="144.3" cy="118.8" rx="20.5" ry="20" fill="url(#paint0_linear_22_3)"/>
</g>
<path d="M150.798 122.332C151.739 124.893 153.751 127.312 156.083 127.312C158.417 127.312 160.431 124.886 161.371 122.322C161.733 122.214 162.114 121.526 162.269 120.648C162.438 119.693 162.278 118.86 161.913 118.724C161.896 118.414 161.867 118.1 161.824 117.786C161.677 115.086 160.852 113.88 159.632 113.341C158.769 112.647 157.615 112.215 156.083 112.215C154.555 112.215 153.404 112.636 152.544 113.315C151.202 113.878 150.323 115.221 150.272 118.406C150.265 118.508 150.258 118.608 150.252 118.709C149.854 118.787 149.673 119.652 149.849 120.648C150.011 121.568 150.421 122.278 150.798 122.332Z" fill="#FFFEF0"/>
<path d="M159.929 127.437L157.42 132.815L156.793 130.836C156.905 130.73 156.978 130.579 157.005 130.403L157.482 129.264C157.482 128.934 157.193 128.666 156.835 128.666H155.283C154.926 128.666 154.636 128.934 154.636 129.264L155.113 130.403C155.138 130.622 155.228 130.782 155.364 130.881L154.717 132.858L152.188 127.437C149.877 129.232 147.926 129.194 146.51 129.596C147.116 129.865 147.669 130.257 148.136 130.889C149.084 132.173 149.488 134.226 149.488 137.754C149.488 138.115 149.422 138.46 149.289 138.787C151.367 139.188 153.788 139.386 156.035 139.386C161.522 139.386 168.101 138.208 168.101 135.761C168.1 126.821 164.821 131.237 159.929 127.437Z" fill="#FFFEF0"/>
<path d="M127.639 121.638C128.767 124.711 131.182 127.614 133.98 127.614C136.781 127.614 139.198 124.703 140.325 121.626C140.76 121.497 141.217 120.671 141.403 119.618C141.605 118.471 141.414 117.471 140.976 117.308C140.955 116.936 140.92 116.56 140.869 116.183C140.693 112.943 139.702 111.495 138.239 110.848C137.203 110.016 135.817 109.497 133.979 109.497C132.145 109.497 130.765 110.003 129.733 110.817C128.122 111.493 127.067 113.104 127.007 116.927C126.998 117.048 126.99 117.169 126.983 117.29C126.505 117.383 126.288 118.422 126.499 119.618C126.694 120.721 127.185 121.573 127.639 121.638Z" fill="#FFFEF0"/>
<path d="M138.595 127.765L135.585 134.219L134.832 131.843C134.966 131.716 135.054 131.535 135.086 131.324L135.658 129.958C135.658 129.561 135.311 129.239 134.881 129.239H133.019C132.59 129.239 132.242 129.561 132.242 129.958L132.815 131.324C132.845 131.587 132.953 131.779 133.117 131.898L132.34 134.269L129.305 127.765C123.436 132.324 119.5 127.024 119.5 137.754C119.501 140.691 127.338 142.103 133.922 142.103C140.505 142.103 148.401 140.691 148.401 137.754C148.401 127.024 144.465 132.324 138.595 127.765Z" fill="#FFFEF0"/>
<defs>
<filter id="filter0_d_22_3" x="4.57764e-05" y="4.57764e-05" width="288.6" height="287.6" filterUnits="userSpaceOnUse" color-interpolation-filters="sRGB">
<feFlood flood-opacity="0" result="BackgroundImageFix"/>
<feColorMatrix in="SourceAlpha" type="matrix" values="0 0 0 0 0 0 0 0 0 0 0 0 0 0 0 0 0 0 127 0" result="hardAlpha"/>
<feOffset dy="25"/>
<feGaussianBlur stdDeviation="61.9"/>
<feComposite in2="hardAlpha" operator="out"/>
<feColorMatrix type="matrix" values="0 0 0 0 0 0 0 0 0 0 0 0 0 0 0 0 0 0 0.05 0"/>
<feBlend mode="normal" in2="BackgroundImageFix" result="effect1_dropShadow_22_3"/>
<feBlend mode="normal" in="SourceGraphic" in2="effect1_dropShadow_22_3" result="shape"/>
</filter>
<linearGradient id="paint0_linear_22_3" x1="123.8" y1="118.8" x2="155.3" y2="118.8" gradientUnits="userSpaceOnUse">
<stop stop-color="#F57C1B"/>
<stop offset="1" stop-color="#F8C522"/>
</linearGradient>
</defs>
</svg>
