<svg width="289" height="288" viewBox="0 0 289 288" fill="none" xmlns="http://www.w3.org/2000/svg">
<g filter="url(#filter0_d_22_8)">
<ellipse cx="144.3" cy="118.8" rx="20.5" ry="20" fill="url(#paint0_linear_22_8)"/>
</g>
<path d="M156.94 124.879C155.241 124.879 153.611 125.521 152.41 126.664C151.208 127.807 150.533 129.357 150.533 130.973C150.533 136.396 155.94 140.321 156.171 140.479C156.393 140.637 156.662 140.723 156.94 140.723C157.217 140.723 157.487 140.637 157.708 140.479C157.939 140.321 163.346 136.396 163.346 130.973C163.346 129.357 162.671 127.807 161.47 126.664C160.268 125.521 158.639 124.879 156.94 124.879ZM156.94 133.411C156.26 133.411 155.608 133.154 155.128 132.697C154.647 132.239 154.377 131.619 154.377 130.973C154.377 130.327 154.647 129.707 155.128 129.249C155.608 128.792 156.26 128.536 156.94 128.536C157.619 128.536 158.271 128.792 158.752 129.249C159.232 129.707 159.502 130.327 159.502 130.973C159.502 131.619 159.232 132.239 158.752 132.697C158.271 133.154 157.619 133.411 156.94 133.411Z" fill="#FEFEF0"/>
<path d="M150.533 125.013V109.036C150.533 108.389 150.263 107.769 149.783 107.312C149.302 106.855 148.651 106.598 147.971 106.598H132.596C131.916 106.598 131.265 106.855 130.784 107.312C130.303 107.769 130.033 108.389 130.033 109.036V139.504C130.033 139.828 130.168 140.138 130.409 140.366C130.649 140.595 130.975 140.723 131.315 140.723H135.158V133.411C135.158 133.087 135.293 132.777 135.534 132.549C135.774 132.32 136.1 132.192 136.44 132.192H144.127C144.467 132.192 144.793 132.32 145.033 132.549C145.273 132.777 145.408 133.087 145.408 133.411V140.723H149.252C149.592 140.723 149.918 140.595 150.158 140.366C150.398 140.138 150.533 139.828 150.533 139.504V138.286C148.922 136.15 148.029 133.601 147.971 130.973C147.974 128.744 148.894 126.605 150.533 125.013ZM137.721 128.536H136.44C136.1 128.536 135.774 128.407 135.534 128.179C135.293 127.95 135.158 127.64 135.158 127.317C135.158 126.994 135.293 126.684 135.534 126.455C135.774 126.226 136.1 126.098 136.44 126.098H137.721C138.061 126.098 138.387 126.226 138.627 126.455C138.867 126.684 139.002 126.994 139.002 127.317C139.002 127.64 138.867 127.95 138.627 128.179C138.387 128.407 138.061 128.536 137.721 128.536ZM137.721 123.661H136.44C136.1 123.661 135.774 123.532 135.534 123.304C135.293 123.075 135.158 122.765 135.158 122.442C135.158 122.119 135.293 121.809 135.534 121.58C135.774 121.351 136.1 121.223 136.44 121.223H137.721C138.061 121.223 138.387 121.351 138.627 121.58C138.867 121.809 139.002 122.119 139.002 122.442C139.002 122.765 138.867 123.075 138.627 123.304C138.387 123.532 138.061 123.661 137.721 123.661ZM137.721 118.786H136.44C136.1 118.786 135.774 118.657 135.534 118.429C135.293 118.2 135.158 117.89 135.158 117.567C135.158 117.244 135.293 116.934 135.534 116.705C135.774 116.476 136.1 116.348 136.44 116.348H137.721C138.061 116.348 138.387 116.476 138.627 116.705C138.867 116.934 139.002 117.244 139.002 117.567C139.002 117.89 138.867 118.2 138.627 118.429C138.387 118.657 138.061 118.786 137.721 118.786ZM137.721 113.911H136.44C136.1 113.911 135.774 113.782 135.534 113.554C135.293 113.325 135.158 113.015 135.158 112.692C135.158 112.369 135.293 112.059 135.534 111.83C135.774 111.601 136.1 111.473 136.44 111.473H137.721C138.061 111.473 138.387 111.601 138.627 111.83C138.867 112.059 139.002 112.369 139.002 112.692C139.002 113.015 138.867 113.325 138.627 113.554C138.387 113.782 138.061 113.911 137.721 113.911ZM144.127 128.536H142.846C142.506 128.536 142.18 128.407 141.94 128.179C141.7 127.95 141.565 127.64 141.565 127.317C141.565 126.994 141.7 126.684 141.94 126.455C142.18 126.226 142.506 126.098 142.846 126.098H144.127C144.467 126.098 144.793 126.226 145.033 126.455C145.273 126.684 145.408 126.994 145.408 127.317C145.408 127.64 145.273 127.95 145.033 128.179C144.793 128.407 144.467 128.536 144.127 128.536ZM144.127 123.661H142.846C142.506 123.661 142.18 123.532 141.94 123.304C141.7 123.075 141.565 122.765 141.565 122.442C141.565 122.119 141.7 121.809 141.94 121.58C142.18 121.351 142.506 121.223 142.846 121.223H144.127C144.467 121.223 144.793 121.351 145.033 121.58C145.273 121.809 145.408 122.119 145.408 122.442C145.408 122.765 145.273 123.075 145.033 123.304C144.793 123.532 144.467 123.661 144.127 123.661ZM144.127 118.786H142.846C142.506 118.786 142.18 118.657 141.94 118.429C141.7 118.2 141.565 117.89 141.565 117.567C141.565 117.244 141.7 116.934 141.94 116.705C142.18 116.476 142.506 116.348 142.846 116.348H144.127C144.467 116.348 144.793 116.476 145.033 116.705C145.273 116.934 145.408 117.244 145.408 117.567C145.408 117.89 145.273 118.2 145.033 118.429C144.793 118.657 144.467 118.786 144.127 118.786ZM144.127 113.911H142.846C142.506 113.911 142.18 113.782 141.94 113.554C141.7 113.325 141.565 113.015 141.565 112.692C141.565 112.369 141.7 112.059 141.94 111.83C142.18 111.601 142.506 111.473 142.846 111.473H144.127C144.467 111.473 144.793 111.601 145.033 111.83C145.273 112.059 145.408 112.369 145.408 112.692C145.408 113.015 145.273 113.325 145.033 113.554C144.793 113.782 144.467 113.911 144.127 113.911Z" fill="#FEFEF0"/>
<defs>
<filter id="filter0_d_22_8" x="4.57764e-05" y="4.57764e-05" width="288.6" height="287.6" filterUnits="userSpaceOnUse" color-interpolation-filters="sRGB">
<feFlood flood-opacity="0" result="BackgroundImageFix"/>
<feColorMatrix in="SourceAlpha" type="matrix" values="0 0 0 0 0 0 0 0 0 0 0 0 0 0 0 0 0 0 127 0" result="hardAlpha"/>
<feOffset dy="25"/>
<feGaussianBlur stdDeviation="61.9"/>
<feComposite in2="hardAlpha" operator="out"/>
<feColorMatrix type="matrix" values="0 0 0 0 0 0 0 0 0 0 0 0 0 0 0 0 0 0 0.05 0"/>
<feBlend mode="normal" in2="BackgroundImageFix" result="effect1_dropShadow_22_8"/>
<feBlend mode="normal" in="SourceGraphic" in2="effect1_dropShadow_22_8" result="shape"/>
</filter>
<linearGradient id="paint0_linear_22_8" x1="123.8" y1="118.8" x2="155.3" y2="118.8" gradientUnits="userSpaceOnUse">
<stop stop-color="#F57C1B"/>
<stop offset="1" stop-color="#F8C522"/>
</linearGradient>
</defs>
</svg>
